<?xml version="1.0" encoding="UTF-8" standalone="no"?>
<!-- Created with Inkscape (http://www.inkscape.org/) -->
<svg id="svg3115" xmlns:rdf="http://www.w3.org/1999/02/22-rdf-syntax-ns#" xmlns="http://www.w3.org/2000/svg" xml:space="preserve" height="36" width="48" version="1.1" xmlns:cc="http://creativecommons.org/ns#" xmlns:dc="http://purl.org/dc/elements/1.1/"><metadata id="metadata3121"><rdf:RDF><cc:Work rdf:about=""><dc:format>image/svg+xml</dc:format><dc:type rdf:resource="http://purl.org/dc/dcmitype/StillImage"/><dc:title/></cc:Work></rdf:RDF></metadata><defs id="defs3119"><clipPath id="clipPath3319" clipPathUnits="userSpaceOnUse"><path id="path3321" d="m43.139,407.69,180.33,0,0,147.85-180.33,0,0-147.85z"/></clipPath><clipPath id="clipPath3347" clipPathUnits="userSpaceOnUse"><path id="path3349" d="m60.813,548.13-1.627,0.078c-0.227,0-0.367-0.109-0.419-0.326-0.371,0.113-1.379-0.289-3.022-1.209h-0.279l-0.217-0.232c-0.093,0.112-0.47-0.073-1.131-0.558-0.847-0.538-1.788-1.287-2.821-2.248l-0.838-1.038-0.557-0.465-0.295-0.496-1.039-1.209-1.208-1.752-1.054-1.844-0.635-1.364-0.838-2.479-0.077-0.791-0.139-0.325c-0.135-0.807-0.176-1.721-0.125-2.744,0-0.899,0.373-2.449,1.117-4.65,0.134-0.743,0.718-1.353,1.751-1.829l0.837-0.883,1.627-1.441,0.217-0.326,1.116-0.806,0.915-0.465,2.325-0.728,2.619-0.078,0.341-0.496c0.289-0.206,0.641-0.119,1.054,0.263l0.992,0.063,2.107,0.092c0.558-0.216,0.956-0.299,1.194-0.247l0.914,0.155,0.775,0.729,1.272,2.308,0.355,1.302,0.202,0.311,1.349,3.688,0.279,0.326c0.093,0.588,0.279,1.152,0.557,1.689l0.574,2.325,0.419,3.27c-0.186,0.114-0.279,0.543-0.279,1.287l-0.217,0.31c-0.186,0-0.445,0.217-0.775,0.651l-1.271,0.65c-0.279,0.093-0.491,0.093-0.636,0l-0.061-0.48-1.194-0.325-1.271-0.652c-0.423-0.154-1.101-0.102-2.03,0.156h-1.411l-2.123-0.558-0.062,0.093-3.177-0.249c-0.558-0.102-1.24-0.102-2.047,0-0.134-0.102-0.18-0.34-0.138-0.712l0.077-0.249,0.697-0.387c0.238-0.165,0.827-0.305,1.767-0.418l0.558-0.232c0.517-0.104,0.966-0.104,1.348,0,0.373,0.216,1.282,0.403,2.728,0.557,1.55,0.217,2.888,0.217,4.014,0l0.636-0.233h0.573l0.497,0.558,0.619,0.155c0.197,0,0.269-0.397,0.218-1.193l-0.699-4.65c-0.134-1.023-0.929-2.681-2.386-4.975l-1.147-1.363-2.03-2-1.209-0.806c-0.464-0.31-1.566-0.418-3.301-0.325-1.271,0.113-2.418,0.49-3.441,1.131-1.653,1.333-2.713,2.562-3.178,3.689l-0.852,3.053-0.341,2.635-0.14,2.402,0.14,1.689,0.837,2.807c0.516,1.229,1.317,2.562,2.403,3.998l2.882,3.131c0.61,0.526,1.782,1.27,3.519,2.232l1.611,0.418,0.078,0.388-0.481,0.496v0.294l0.636,0.325c0.785,0.062,1.25,0.202,1.395,0.419l1.968,0.139,0.713-0.232c0.744-0.434,1.193-0.75,1.349-0.945l0.479-2.821,0.358-0.31c0.041-0.589,0.18-0.941,0.417-1.054l0.698-0.062,1.21,0.387,0.201,0.233-0.356,1.689c0.196,1.075,0.268,1.959,0.217,2.651-0.094,0.216-0.279,0.294-0.558,0.232l-0.574,0.496-1.193-0.093c-1.22,0.32-1.856,0.428-1.907,0.325l-0.636,0.248c-0.256,0.013-0.495,0.018-0.716,0.018-0.708,0-1.238-0.063-1.593-0.188"/></clipPath><clipPath id="clipPath3357" clipPathUnits="userSpaceOnUse"><path id="path3359" d="m0.011839-0.10478,0.21479,0,0,0.22884-0.21479,0,0-0.22884z"/></clipPath><linearGradient id="linearGradient3361" gradientUnits="userSpaceOnUse" gradientTransform="matrix(150.33396,-82.882012,-82.882012,-150.33396,39.794777,544.10455)"><stop id="stop3363" stop-color="#FFF" offset="0"/><stop id="stop3365" stop-color="#f9a72b" offset="1"/></linearGradient><clipPath id="clipPath3373" clipPathUnits="userSpaceOnUse"><path id="path3375" d="m85.219,538.01-0.992-0.496-1.317-0.078c-0.714-0.114-1.21-0.309-1.488-0.588l-0.822-0.156-1.41-0.992-0.326-0.077-2.635-1.906-2.805-3.131-1.813-2.712c-1.374-2.367-2.201-4.65-2.48-6.852-0.104-1.424,0.418-2.608,1.566-3.548,0.609-0.331,1.327-0.44,2.154-0.325,1.095,0.217,1.751,0.547,1.969,0.991l1.735,2.712,0.822,0.915,1.487,2.882,0.496,0.42,0.652,0.155,0.418-0.155c0.114-0.115,0.005-1.075-0.325-2.884l-0.093-4.045c0.061-1.818,0.588-2.646,1.58-2.479,0.6,0,0.982,0.195,1.147,0.588l-0.078,0.976,0.404,1.489,1.24,0.992,1.317,2.96,0.418,2.062-0.325-0.155-0.743-1.163-1.24-0.496c-0.217-0.051-0.631-0.765-1.241-2.139-0.052-0.165-0.19-0.223-0.418-0.17l-0.078,0.341,0.17,2.387,0.574,3.301,1.146,3.131,0.59,1.069,0.744,2.138,1.069,1.659,0.078,0.326c0.279,0.547,0.667,0.986,1.163,1.317v0.248l-0.496,0.248v0.325c0.217,0.611,0.542,1.106,0.976,1.488v0.248c-0.269,0.496-0.899,0.744-1.891,0.744-0.331-0.217-0.63-0.738-0.899-1.565m-13.36-18.878c-0.331,1.209-0.44,1.865-0.326,1.969,0.652,3.027,1.612,5.502,2.884,7.424,1.094,1.704,2.055,2.944,2.882,3.719l2.061,1.72,1.814,1.163c0.713,0.331,1.317,0.439,1.813,0.326l0.078-0.419-1.473-2.712-1.736-3.952-1.239-1.985c-0.496-0.826-0.718-1.539-0.667-2.138l-0.481-0.992c-0.496-0.827-1.544-2.175-3.145-4.045-0.652-0.713-1.199-1.07-1.644-1.07l-0.821,0.992z"/></clipPath><clipPath id="clipPath3383" clipPathUnits="userSpaceOnUse"><path id="path3385" d="m0.16186-0.082095,0.16455,0,0,0.17622-0.16455,0,0-0.17622z"/></clipPath><linearGradient id="linearGradient3387" gradientUnits="userSpaceOnUse" gradientTransform="matrix(150.33821,-82.88436,-82.88436,-150.33821,42.314665,548.67677)"><stop id="stop3389" stop-color="#FFF" offset="0"/><stop id="stop3391" stop-color="#f9a72b" offset="1"/></linearGradient><clipPath id="clipPath3399" clipPathUnits="userSpaceOnUse"><path id="path3401" d="m94.727,555.54c-0.071-0.004-0.15-0.02-0.24-0.047,0.053-0.196-0.16-0.382-0.635-0.559l-0.062-0.945-0.402-1.255,0.061-1.038-0.341-1.473v-0.465l-0.372-0.573v-0.806l-0.264-0.744,0.062-1.488-0.403-2.155v-0.805l-0.341-1.861-0.851-5.517c-0.042-0.248-0.151-0.476-0.326-0.682-0.093-0.238-0.093-0.682,0-1.333l-0.372-3.037-0.279-1.116-0.063-1.442-0.263-1.612,0.063-0.217-0.264-1.782c-0.145-1.551-0.17-2.398-0.078-2.542l-0.139-0.822c0.041-1.126,0.247-1.864,0.619-2.216,0-0.661,0.088-1.105,0.264-1.333,0.248-0.661,0.853-0.914,1.814-0.759,0.744,0.186,1.302,0.552,1.673,1.1l0.062,0.217,0.636,0.775,1.116,1.999,0.201,0.682,0.357,0.511v0.233l0.899,1.69,0.605,1.642,0.712,0.822,0.512,1.116v0.434l-0.249,0.372-0.526-0.124-0.652-1.147-0.681-2.077-2.155-4.076-0.635-0.65-1.178-1.938h-0.481v0.589l-0.216,0.883,0.139,0.527-0.139,2.232,0.139,2c0.279,0.929,0.372,1.446,0.279,1.549,0,0.403,0.093,0.697,0.279,0.883l-0.14,0.899-0.061,2.402c0,0.6,0.067,0.9,0.201,0.9v0.806l0.201,1.565,0.217,0.822v0.883c0.104,0.145,0.176,0.687,0.217,1.628l0.202,0.96v0.744l0.139,0.466,0.062,1.549,0.915,1.999c0.083,0.807,0.083,1.406,0,1.799,0.134,0.196,0.248,1.063,0.341,2.603l0.434,1.039,0.062,0.961,0.558,1.178,0.465,0.744c0.144,0.196,0.196,0.464,0.155,0.806l0.139,0.232-0.201,1.706,0.124,0.542c-0.041,0.134-0.543,0.35-1.504,0.65,0,0.318-0.116,0.483-0.348,0.497h-0.063z"/></clipPath><clipPath id="clipPath3409" clipPathUnits="userSpaceOnUse"><path id="path3411" d="m0.21995-0.11489,0.15738,0,0,0.22446-0.15738,0,0-0.22446z"/></clipPath><linearGradient id="linearGradient3413" gradientUnits="userSpaceOnUse" gradientTransform="matrix(150.33396,-82.882019,-82.882019,-150.33396,48.836755,560.50492)"><stop id="stop3415" stop-color="#FFF" offset="0"/><stop id="stop3417" stop-color="#f9a72b" offset="1"/></linearGradient><clipPath id="clipPath3425" clipPathUnits="userSpaceOnUse"><path id="path3427" d="m104.69,540.46-0.836-0.62c-0.517-0.434-0.936-0.936-1.255-1.503l-0.76-1.721-0.496-1.813-0.341-0.621c-0.186-0.309-0.258-0.769-0.217-1.379l-0.341-1.829c-0.372-0.403-0.837-0.568-1.395-0.496l-0.279-0.232h-0.356l-0.202-0.186-0.899-0.109-1.674-0.387-0.496-0.233-0.76-0.123v-0.295c0.786-0.072,1.297,0.01,1.535,0.248l1.457,0.294,1.395-0.124c0.279,0.486,0.651,0.651,1.116,0.496l0.341-0.263-0.062-3.1c-0.052-0.754,0.181-2.164,0.697-4.231,0.465-1.581,1.297-3.002,2.496-4.263l0.915-0.744,1.316-0.587c0.6-0.156,1.204-0.213,1.814-0.172,0.093-0.103,0.465,0.031,1.116,0.404l0.759,0.805,0.775,1.394,0.481,1.334,0.201,1.023c-0.506-1.457-1.198-2.749-2.077-3.875-0.371-0.485-1.022-0.713-1.952-0.681-0.559,0.123-1.21,0.454-1.954,0.992l-1.115,1.27-0.976,1.457-0.683,1.814c0.093,0.051,0,0.418-0.279,1.1-0.237,2.025-0.356,3.544-0.356,4.556-0.093,0.321,0,0.952,0.279,1.891l1.177,1.101,0.497,0.046c1.622,0.651,2.506,1.055,2.65,1.21l0.76,0.309c0.464,0.455,0.836,0.718,1.115,0.79l0.698,0.605c0.186,0.114,0.279,0.295,0.279,0.543h0.139l0.481,1.163v0.666c-0.042,1.374-0.925,2.675-2.651,3.906l-0.139,0.403c-0.455,0.216-0.915,0.325-1.379,0.325l-0.559-0.558zm-2.091-8.757-0.078,0.247,0.14,0.249,0.216,1.27c0.135,0.568,0.646,1.54,1.534,2.915,1.344,1.333,2.316,2.019,2.914,2.062,0.466-0.569,0.724-1.272,0.775-2.109-0.144-0.734-0.449-1.384-0.914-1.953-1.478-1.26-2.707-2.03-3.688-2.31l-0.28-0.247c-0.1-0.094-0.242-0.14-0.424-0.14-0.061,0-0.126,0.006-0.195,0.016"/></clipPath><clipPath id="clipPath3435" clipPathUnits="userSpaceOnUse"><path id="path3437" d="m0.28713-0.076377,0.15275,0,0,0.17175-0.15275,0,0-0.17175z"/></clipPath><linearGradient id="linearGradient3439" gradientUnits="userSpaceOnUse" gradientTransform="matrix(150.33399,-82.882032,-82.882032,-150.33399,48.695972,560.2494)"><stop id="stop3441" stop-color="#FFF" offset="0"/><stop id="stop3443" stop-color="#f9a72b" offset="1"/></linearGradient><clipPath id="clipPath3451" clipPathUnits="userSpaceOnUse"><path id="path3453" d="m117.56,540.01-0.542-0.713-0.976-0.807-0.264-0.712c-0.186-0.062-0.574-0.6-1.162-1.612-0.238-1.065-0.326-1.747-0.264-2.047l-0.186-0.526c0-0.775,0.088-1.224,0.263-1.349l0.187-1.239,1.069-2.139-1.612-1.612-0.264-0.094-2.308-2.402-1.613-2.046c-0.475-0.661-0.832-1.673-1.069-3.037-0.114-0.652,0.45-1.421,1.689-2.309h0.635l1.07-0.358,2.929-0.185c1.726,0.175,2.945,0.594,3.659,1.255l0.991,0.263,1.147,1.24,0.543,1.163,0.263,1.689-0.357,2.061-0.264,0.357-0.619,2.047-1.425,2.587v0.62l0.526,0.806,2.139,1.519,1.07,0.45c0.413,0.588,0.919,1.064,1.519,1.426l1.069,0.17,1.255-0.449,0.558,3.626-2.79-1.844-1.968-1.69-0.976-1.162c-1.84-1.188-2.971-1.664-3.395-1.425-0.889,1.311-1.033,2.712-0.434,4.2l1.07,1.503,0.17,0.635,1.612,1.953c0.114-0.062,0.589,0.238,1.426,0.899l1.24,1.07v0.62l-0.17,0.186-1.783,0.356c-0.3-0.062-1.518-1.044-3.658-2.944m-6.153-21.762-0.713,0.543c-0.3,0.238-0.449,0.951-0.449,2.139l1.256,2.495,1.782,2.14c0.351,0.299,0.707,0.712,1.069,1.239l1.333,1.163,0.449,0.092,0.713-1.161,0.45-0.357,0.527-1.07,0.543-0.45c0.113,0,0.32-0.593,0.619-1.782v-2.138c-0.413-1.065-0.92-2.015-1.518-2.853l-0.807-0.263c-0.527-0.238-1.178-0.356-1.953-0.356l-1.612-0.093c-0.113,0.175-0.676,0.413-1.689,0.712"/></clipPath><clipPath id="clipPath3461" clipPathUnits="userSpaceOnUse"><path id="path3463" d="m0.35473-0.0956,0.16792,0,0,0.18536-0.16792,0,0-0.18536z"/></clipPath><linearGradient id="linearGradient3465" gradientUnits="userSpaceOnUse" gradientTransform="matrix(150.33903,-82.884811,-82.884811,-150.33903,51.760911,565.81356)"><stop id="stop3467" stop-color="#FFF" offset="0"/><stop id="stop3469" stop-color="#f9a72b" offset="1"/></linearGradient><clipPath id="clipPath3477" clipPathUnits="userSpaceOnUse"><path id="path3479" d="m135.57,554.98c-0.248-0.227-0.599-0.362-1.054-0.402l-0.759,0.062-0.171-0.141-0.992-3.75-0.17-0.294c-0.382-3.029-0.888-5.152-1.519-6.37v-0.481l-0.481-1.642c-0.362-2.212-0.873-4.681-1.534-7.409-0.331-3.286-0.455-5.229-0.372-5.828l-0.356-0.821v-2.232c0.092-1.611,0.371-3.41,0.836-5.394,0.186-0.951,0.636-1.721,1.349-2.31,1.002-0.443,1.928-0.701,2.774-0.774l1.473,0.511,0.31,0.186-0.078,1.023c0.123,0.909,0.341,1.364,0.651,1.364l0.093,0.388,0.295,0.061-0.187-1.209,0.854,1.101c0.443,0.95,0.722,1.87,0.836,2.758l0.294,0.558,0.109,0.792,0.558,1.084,0.217,0.791,0.667,1.394v0.512l0.666,1.767,0.279,1.503,0.573,1.597-0.108,0.403,0.387,1.642c0.145,1.126,0.145,1.71,0,1.752l0.217,1.224-0.326,0.202-1.612,0.139-0.293,0.124c-0.445,0.145-0.853,0.015-1.225-0.387l-1.55-0.559-1.023-0.666-1.069-0.278-1.612-1.349-0.388-0.558c-0.186-0.176-0.34-0.232-0.465-0.171-0.207,0.207-0.145,0.946,0.186,2.217,0.382,0.62,0.516,0.982,0.404,1.085,0.112,0.681,0.355,1.177,0.728,1.488l0.294,1.085,0.977,2.139c-0.134,0.784-0.134,1.622,0,2.511l0.341,1.146,0.511,0.899,0.465,3.224,1.132,1.876,0.79,2.2c-0.161,0.226-0.472,0.34-0.933,0.34-0.275,0-0.605-0.041-0.989-0.123m-3.596-36.128-0.464,0.48-0.807,2.015,0,0.59,0.279,0.418-0.077,0.325c0.403,0.32,0.403,0.976,0,1.968l0.077,0.079-0.17,1.549,0.17,1.364,0.187,0.356c-0.125,0.548-0.125,0.992,0,1.333l1.161,2.914-0.076,0.883,1.332,0.171c0.362,0.207,0.584,0.481,0.667,0.821l1.425,1.039h0.698l1.395-0.48c-0.124-1.127-0.124-1.783,0-1.969l-0.279-2.077,0.093-0.433c-1.033-2.873-1.927-4.852-2.681-5.937-1.086-2.583-1.726-4.345-1.922-5.285-0.052-0.216-0.238-0.325-0.558-0.325l-0.45,0.201z"/></clipPath><clipPath id="clipPath3487" clipPathUnits="userSpaceOnUse"><path id="path3489" d="m0.41985-0.11595,0.17327,0,0,0.23013-0.17327,0,0-0.23013z"/></clipPath><linearGradient id="linearGradient3491" gradientUnits="userSpaceOnUse" gradientTransform="matrix(150.33405,-82.882073,-82.882073,-150.33405,58.481044,577.99797)"><stop id="stop3493" stop-color="#FFF" offset="0"/><stop id="stop3495" stop-color="#f9a72b" offset="1"/></linearGradient><clipPath id="clipPath3503" clipPathUnits="userSpaceOnUse"><path id="path3505" d="m156.66,541.5-1.085-3.177-2.511-5.812-0.264-1.472-1.612-3.348-2.139-2.822-2.697-4.199c-0.651-0.899-1.064-1.318-1.239-1.256,0.061,0.361,0,0.635-0.186,0.821,0.123,0.599,0.123,1.08,0,1.442l0.356,2.991,0.264,1.023v0.62l0.542,1.906,0.092,1.101,0.357,1.085v0.821l0.806,3.363,1.163,3.829,0.186,0.17,0.093,0.652c-0.187,0.289-0.879,0.434-2.077,0.434l-0.434-0.264-1.969-0.357c-0.361-0.186-0.604-0.49-0.729-0.914l0.466-0.093,2.046,0.279,0.092-0.559-1.875-7.996-1.426-7.998c-0.123-0.486-0.123-0.821,0-1.007l-0.092-2.898c0.175-0.796,0.563-1.101,1.162-0.915l0.356-0.279c1.075,0,1.819,0.248,2.232,0.743l0.279,1.086,1.503,3.363,3.147,5.27c0.713,0.609,1.188,0.826,1.425,0.65l0.094-0.092-0.094-4.728c0-0.671,0.213-1.58,0.637-2.728,0.536-1.219,1.193-2.159,1.968-2.821l1.069-0.557,2.604-0.093c0.29-0.062,0.946,0.124,1.968,0.558l1.333,1.271c1.726,2.304,2.475,3.636,2.248,3.998l-0.28,0.279-0.263-0.109-1.798-2.619-1.425-1.286c-1.375-0.723-2.625-0.961-3.751-0.713-0.249-0.062-0.817,0.935-1.705,2.991-0.424,2.119-0.579,3.757-0.465,4.914l0.543,3.813,0.635,1.999,0.186,1.27,0.34,0.822,0.466,2.17c0.95,2.738,1.545,4.226,1.783,4.464v0.464c-0.509,0.429-1.012,0.642-1.512,0.642-0.272,0-0.544-0.064-0.813-0.192"/></clipPath><clipPath id="clipPath3513" clipPathUnits="userSpaceOnUse"><path id="path3515" d="m0.532-0.1033,0.18357,0,0,0.19005-0.18357,0,0-0.19005z"/></clipPath><linearGradient id="linearGradient3517" gradientUnits="userSpaceOnUse" gradientTransform="matrix(150.33405,-82.882066,-82.882066,-150.33405,59.385156,579.63786)"><stop id="stop3519" stop-color="#FFF" offset="0"/><stop id="stop3521" stop-color="#f9a72b" offset="1"/></linearGradient><clipPath id="clipPath3529" clipPathUnits="userSpaceOnUse"><path id="path3531" d="m173.17,544.29-0.79-2.03-2.433-2.93-0.45-0.263c-0.289,0.351-0.258,0.646,0.093,0.884v0.527c-0.403,0.185-0.78,0.604-1.131,1.254l-1.845,0.172-0.527-0.358c0.063-0.939,0.006-1.528-0.17-1.766l-0.527-4.867-1.736-10.896-0.79-3.363-0.512-3.363c0.289-0.538,0.956-0.507,1.999,0.093l1.132,7.16c0.754,3.72,1.276,5.905,1.566,6.556,0.939,2.718,2.196,5.286,3.765,7.704,0.465,0.651,0.817,0.914,1.055,0.79l0.325-0.435,0.79-0.541v-1.147l0.186-0.264,0.775-0.186,1.225,0.356,0.356,2.31,0.263,0.62c0,0.651,0.115,1.271,0.341,1.86v1.41c0,0.589-0.49,0.945-1.472,1.07-0.878,0-1.374-0.119-1.488-0.357"/></clipPath><clipPath id="clipPath3539" clipPathUnits="userSpaceOnUse"><path id="path3541" d="m0.6237-0.090913,0.14874,0,0,0.18104-0.14874,0,0-0.18104z"/></clipPath><linearGradient id="linearGradient3543" gradientUnits="userSpaceOnUse" gradientTransform="matrix(150.3343,-82.882201,-82.882201,-150.3343,64.269727,588.49858)"><stop id="stop3545" stop-color="#FFF" offset="0"/><stop id="stop3547" stop-color="#f9a72b" offset="1"/></linearGradient><clipPath id="clipPath3555" clipPathUnits="userSpaceOnUse"><path id="path3557" d="m204.93,543.03-2.31-0.527-0.062,0.109c-1.725-0.475-2.779-0.822-3.162-1.039-6.292,0.29-10.565,0.315-12.817,0.078v0.109l-1.256-0.187-0.387,0.078-2.511-0.17c-0.92-0.404-1.493-0.549-1.72-0.434l-0.326-0.249-1.441-0.077c-0.486-0.062-0.687-0.377-0.604-0.945l0.526-0.961-0.201-0.496-1.581-2.402-0.465-1.024-0.589-2.418-0.139-1.952,0.139-1.193,0.589-1.814,0.79-1.101c0.754-0.64,1.483-1.099,2.185-1.379l0.062-0.249-2.293-1.905-0.744-0.93c-0.341-0.92-0.491-1.839-0.449-2.759l0.263-0.93,0.574-1.131c0-0.166,0.599-0.646,1.798-1.442l0.789-0.356,2.248-0.249,3.89,0.171,3.115-0.248,0.977-0.248c0.661-0.072,1.674-0.589,3.038-1.549l1.116-1.457,0.605-1.132,0.264-1.875-0.326-1.457-0.682-1.38-0.575-0.759-1.472-1.379-1.364-0.775-0.216-0.341-1.767-0.76-0.202-0.279-2.975-1.441h-0.326l-0.589-0.435-0.666-0.077-1.845-0.698h-0.387l-0.869-0.433-3.037-0.248-0.977-0.341-0.464-0.435c-0.187-0.113-0.367-0.113-0.543,0-1.271-0.113-2.191-0.315-2.759-0.604-0.31,0.187-1.477,0.046-3.502-0.418l-0.326-0.186-1.968-0.14c-0.889-0.072-1.333-0.247-1.333-0.526l0.34-0.078,0.264,0.17c0.176-0.186,0.439-0.16,0.791,0.078,0.433-0.052,1.725,0.005,3.874,0.17l0.062-0.093c0.796,0,1.214,0.093,1.256,0.279l3.053,0.077,1.179,0.528,0.588-0.109c2.149,0.455,3.606,0.884,4.371,1.287l1.038,0.17,0.402,0.279,0.714,0.077c2.129,0.734,3.167,1.215,3.115,1.442,0.124-0.114,0.678,0.089,1.659,0.604l0.186,0.249h0.326l1.456,0.961,1.333,0.604,0.186,0.248h0.201c0.796,0.734,1.302,1.101,1.519,1.101,0.217,0.402,0.501,0.696,0.852,0.883l0.605,0.852,0.651,1.798,0.077,1.953c0.043,0.29-0.185,1.007-0.681,2.155l-0.853,1.363-1.441,1.473-1.256,0.682-0.403,0.341-2.185,0.76-3.627,0.34-4.091-0.062c-1.716,0.165-2.816,0.615-3.302,1.349-0.258,0.754-0.32,1.389-0.186,1.906,0.176,0.62,0.61,1.354,1.302,2.201,0.187-0.052,0.46,0.206,0.821,0.774l0.791,0.435,0.186,0.34c0.661,0.125,1.235,0.445,1.721,0.961l0.991,0.249c0.083,0.165,0.496,0.423,1.241,0.775,0.134,0,0.247,0.201,0.341,0.605,1.446,0.898,2.17,1.467,2.17,1.704l0.464,0.248,1.395,1.891,0.574,2.076,0.279,2.559-0.388,1.704-0.93,1.968-1.472,1.566-0.047,0.248,0.325,0.418,1.519,0.434c0.837,0,1.52,0.083,2.046,0.248,1.188,0.114,1.917,0.114,2.185,0,1.934,0.186,2.987,0.222,3.163,0.109l0.325-0.605,1.317-0.604,1.395-0.357,1.985,0.186,0.651,0.171c1.063,0,1.678-0.083,1.844-0.248,0.889,0.092,1.751,0.092,2.588,0l0.977-0.357c0.217,0.455,0.392,0.682,0.526,0.682,0.228-0.165,0.537-0.227,0.931-0.186l0.061,0.527-0.449,0.791-0.202,0.775-0.867,1.1c-0.176,0.238-0.439,0.357-0.791,0.357l-1.782-0.187zm-20.645-4.463c0.785,0.806,1.224,1.126,1.317,0.961l0.652-0.527,0.403-0.682,0.573-0.528c0.187-0.164,0.521-0.873,1.007-2.123,0.166-1.323,0.232-2.149,0.202-2.48l-0.527-1.905-1.07-1.783-0.867-0.884-2.155-1.627c-0.837-0.382-1.674-0.868-2.511-1.457l-0.651-0.17c-0.765,0.186-1.493,0.645-2.185,1.378l-0.605,1.024c-0.268,1.044-0.356,1.705-0.263,1.983,0.434,2.573,0.94,4.087,1.519,4.543l0.526,1.193,0.326,0.185,1.395,1.705c0.486,0.392,0.812,0.532,0.977,0.418l1.937,0.776zm-1.798-24.411-0.248-0.357-0.744-0.062-0.186,0.325-0.325-0.325-1.581-0.109,0.047,0.434c-0.176,0-0.285-0.108-0.326-0.325l-0.651-0.186v0.077c-0.362-0.164-0.718-0.191-1.07-0.077l-0.449-0.278-1.782-0.249c-0.714-0.113-1.07-0.03-1.07,0.249l-0.589-0.062-0.248,0.17,0.047,0.356c-0.527,0.042-1.318-0.113-2.372-0.464l-0.309,0.108c-1.188-0.114-2.268-0.346-3.24-0.698-0.62,0.062-1.586-0.083-2.898-0.434-4.144-1.25-6.871-2.277-8.184-3.084h-0.402c-1.097-0.733-1.907-1.131-2.434-1.193-0.579-0.29-1.679-1.142-3.301-2.558l-0.93-1.286-0.388-0.775c0.083-0.113,0.01-0.434-0.217-0.961v-0.666l0.543-1.457c0.093-0.238,0.423-0.554,0.992-0.946,1.983-1.023,3.812-1.571,5.486-1.643-0.145,0.124-1.074,0.47-2.79,1.039l-2.51,1.193-0.651,1.038-0.063,0.946,0.125,0.171,0.077,0.589,0.976,1.549,0.791,0.419,0.279,0.527c0.124,0,0.361,0.227,0.712,0.681l0.543,0.078,0.791,0.884h0.325l1.907,1.178c0.31,0.113,0.557,0.113,0.744,0l0.371,0.341,1.535,0.526,0.465,0.326,2.433,0.698,0.264,0.263,1.72,0.418,0.264,0.248c1.281,0.125,2.138,0.362,2.572,0.713,0.62-0.124,1.039-0.124,1.256,0l0.263-0.185,0.063-0.249c-0.176,0-0.264-0.118-0.264-0.356l3.689,0.79,0.062-0.109,0.511,0.249,2.123,0.527c0.351-0.166,0.791-0.103,1.318,0.186,1.229,0,1.938,0.082,2.123,0.248l1.039-0.078,0.604,0.248c1.447-0.166,2.527-0.196,3.24-0.093l0.991-0.155,0.187,0.078c0.485,0,0.775-0.083,0.867-0.248,0.569,0,1.312-0.119,2.232-0.357l0.388-0.247,0.14,0.077c0.361,0,0.604-0.109,0.728-0.326,0.227,0.042,0.537-0.103,0.929-0.434l0.791-0.171,0.853,0.326,0.138,0.419-1.068,1.487c-0.124,0.217-0.605,0.217-1.442,0l-2.433,0.419h-0.93l-0.465,0.186-0.325-0.109-1.194,0.109-0.063,0.14,0.203,0.356-0.605-0.077zm-4.231-0.094-0.046-0.185,0.263,0,0,0.185-0.217,0z"/></clipPath><clipPath id="clipPath3565" clipPathUnits="userSpaceOnUse"><path id="path3567" d="m0.55776-0.19753,0.44212,0,0,0.41303-0.44212,0,0-0.41303z"/></clipPath><linearGradient id="linearGradient3569" gradientUnits="userSpaceOnUse" gradientTransform="matrix(150.33401,-82.882046,-82.882046,-150.33401,62.495085,585.27866)"><stop id="stop3571" stop-color="#FFF" offset="0"/><stop id="stop3573" stop-color="#f9a72b" offset="1"/></linearGradient><clipPath id="clipPath3581" clipPathUnits="userSpaceOnUse"><path id="path3583" d="m53.245,504.62-3.472-2.324-0.728-0.699-0.869-0.541c-1.291-1.54-1.912-2.465-1.859-2.775l-0.667-1.007-1.302-3.332-0.078-0.465-0.279-0.558c0.104-0.042,0-0.496-0.309-1.364v-0.714c-0.176-0.516-0.336-1.317-0.481-2.402l-0.062-2.65c0-2.108,0.574-4.123,1.721-6.045,0.381-0.506,1.053-1.198,2.015-2.077l1.829-1.007c0.857-0.475,2.417-0.713,4.679-0.713,1.84,0.166,3.654,0.615,5.441,1.349,1.199,0.516,2.283,1.239,3.255,2.169l0.202,0.76h-0.14c-0.434-0.413-1.612-0.899-3.534-1.457-0.3-0.052-0.398-0.238-0.294-0.558l0.728,0.093c0,0.093,0.165,0.171,0.496,0.232l0.093-0.232-0.17-0.17c-0.197,0.113-0.749,0.009-1.658-0.31l-1.736-0.156c-1.107,0.311-1.923,0.394-2.449,0.249-0.3,0.258-0.688,0.387-1.163,0.387l-0.294,0.295-1.085,0.31-1.147,0.774-1.162,1.55-0.357,0.17-0.45,0.605-0.728,1.86c-0.29,0.724-0.378,1.241-0.264,1.55l-0.371,1.085-0.217,2.03c-0.042,2.831,0.656,5.745,2.091,8.742l2.248,2.867,1.225,1.163,1.023,0.681,2.728,1.395,0.588,0.078,0.589,0.31c0.672,0,1.059,0.083,1.163,0.248h2.077l1.379-0.387,0.791-0.481c0.64-0.816,0.96-1.302,0.96-1.457l0.357-0.387,0.433-0.17,0.063,0.076,0.512-0.076c0.816,0.154,1.348,0.387,1.595,0.697,0.332,0.516,0.569,1.266,0.714,2.247-0.435,1.085-0.775,1.653-1.023,1.704-0.227,0.207-0.728,0.207-1.503,0-0.28,0-0.543,0.105-0.791,0.311-0.972,0.269-2.325,0.403-4.061,0.403-2.025-0.31-4.123-0.935-6.292-1.876m-0.931-27.96-1.379,0.171c-1.013,0.402-1.643,0.712-1.89,0.929-0.289,0.207-0.383,0.388-0.279,0.543l0.728,0.078c1.487-0.569,3.172-1.085,5.052-1.55l0.062-0.171-0.433-0.139c-1.003,0.092-1.53,0.092-1.582,0l-0.279,0.139z"/></clipPath><clipPath id="clipPath3591" clipPathUnits="userSpaceOnUse"><path id="path3593" d="m0.12282-0.10493,0.2072,0,0,0.2227-0.2072,0,0-0.2227z"/></clipPath><linearGradient id="linearGradient3595" gradientUnits="userSpaceOnUse" gradientTransform="matrix(150.33393,-82.881999,-82.881999,-150.33393,21.520311,510.95744)"><stop id="stop3597" stop-color="#FFF" offset="0"/><stop id="stop3599" stop-color="#f9a72b" offset="1"/></linearGradient><clipPath id="clipPath3607" clipPathUnits="userSpaceOnUse"><path id="path3609" d="m70.51,500.08-0.821-0.852-1.348-2.279-0.76-1.751-0.232-0.915-0.512-0.93-0.093-0.558-0.836-2.107c-0.621-2.573-0.987-4.386-1.102-5.441l-0.061-2.572c-0.166-0.548,0.077-1.932,0.728-4.154,0.579-1.219,1.478-2.071,2.697-2.557,0.496-0.187,1.11-0.249,1.845-0.187,0.888-0.258,1.864,0.321,2.928,1.736l1.427,2.512,0.418,0.991,1.426,4.696c0,0.187,0.305,0.347,0.915,0.481l0.589,3.022,0.341,0.822c0.227,1.044,0.309,1.937,0.247,2.681l0.357,1.844-0.264,1.55-0.263,0.652-0.93,0.728-0.233,0.558-1.007,0.821-2.603,0.279-0.822,0.558-0.945,0.372h-1.086zm-0.914-23.481c-0.786,0.373-1.534,1.571-2.247,3.596l-0.264,2.48v1.379c0.33,2.16,1.199,5.141,2.604,8.943l1.163,1.922,1.007,0.744,0.418,0.728c0.445,0.311,0.863,0.248,1.256-0.185l1.084-0.187,0.42,0.372c0.949-1.043,1.234-3.007,0.852-5.89l0.077-0.185c-0.175-1.23-0.428-2.46-0.759-3.689,0-0.424,0.113-0.703,0.341-0.837v-0.449l-1.178-3.317c-0.558-1.334-1.344-2.656-2.356-3.968l-1.504-1.178c-0.355-0.198-0.621-0.298-0.798-0.298-0.044,0-0.083,0.006-0.116,0.019"/></clipPath><clipPath id="clipPath3617" clipPathUnits="userSpaceOnUse"><path id="path3619" d="m0.25024-0.083264,0.14092,0,0,0.16489-0.14092,0,0-0.16489z"/></clipPath><linearGradient id="linearGradient3621" gradientUnits="userSpaceOnUse" gradientTransform="matrix(150.33869,-82.884629,-82.884629,-150.33869,23.339944,514.26197)"><stop id="stop3623" stop-color="#FFF" offset="0"/><stop id="stop3625" stop-color="#f9a72b" offset="1"/></linearGradient><clipPath id="clipPath3633" clipPathUnits="userSpaceOnUse"><path id="path3635" d="m97.076,501.11-0.419-1.86c-1.116-2.645-2.345-5.135-3.689-7.47l-1.859-4.541-0.17-0.078-0.079,0.744,0.512,2.944,0.574,2.046,0.108,0.729,0.403,1.101,0.186,1.022c0.093,0.858,0.31,1.601,0.651,2.232l0.077,0.899-0.248,0.558-1.255,0.372c-0.331,0-0.527-0.087-0.589-0.264,0-0.557-0.082-0.991-0.248-1.301l-4.618-7.115-2.681-4.634c-0.28-0.485-0.539-0.697-0.776-0.635l-0.155,0.186,0.667,2.698,0.666,4.617,0.186,0.342v0.573l0.76,2.48,0.062,1.286,0.434,1.395-0.187,0.372c-0.496,0.362-0.986,0.579-1.472,0.651-0.3,0.062-0.475-0.212-0.528-0.821l-1.254-1.768-0.42-0.836c-0.225-0.434-0.65-0.837-1.269-1.209l-2.325-0.728,2.898-0.187,0.588-0.185,0.108-1.193-0.17-3.798-0.17-0.837v-1.658l-0.263-1.845-1.503-8.122c-0.228-0.671-0.522-1.224-0.884-1.658v-0.372c1.146-0.455,1.865-0.423,2.154,0.093l0.233,2.123,0.929,2.775c0.341,1.105,1.127,2.95,2.357,5.533l2.79,4.634,0.65,1.565,1.007,1.567,0.264,0.17c0.041-1.467,0.181-2.258,0.419-2.372v-1.519l-0.683-3.317-0.573-4.882-0.093-3.952c0.062-0.62,0.584-0.878,1.566-0.775l0.449,0.387-0.17,1.302c0.061,1.044,0.614,3.441,1.658,7.192l1.937,5.083,2.015,4.433,0.186,0.094,0.171-0.279,0.077-1.659,0.171-0.387,0.588,0.093,0.094-0.713-0.356-4.169,0.092-0.186-0.341-8.324,0.249-3.332c0-0.413,0.196-0.593,0.588-0.542,0.072-0.176,0.249-0.331,0.528-0.465,0.775,0.309,1.219,0.377,1.333,0.201l0.341,0.357c-0.187,0.299-0.166,0.703,0.061,1.208l0.838,1.659c0.113,0.609,0.459,1.441,1.037,2.496l0.063,2.216-0.419-0.187c-0.166-0.671-0.392-1.316-0.681-1.937l-1.086-1.766-0.589-0.358-0.14,0.202-0.092,1.922,0.588,12.555,0.481,3.161v1.286l0.357,1.753c-0.195,0.651-0.833,0.977-1.915,0.977-0.24,0-0.5-0.016-0.782-0.048"/></clipPath><clipPath id="clipPath3643" clipPathUnits="userSpaceOnUse"><path id="path3645" d="m0.31631-0.10164,0.19268,0,0,0.19986-0.19268,0,0-0.19986z"/></clipPath><linearGradient id="linearGradient3647" gradientUnits="userSpaceOnUse" gradientTransform="matrix(150.33622,-82.883264,-82.883264,-150.33622,27.559347,521.91334)"><stop id="stop3649" stop-color="#FFF" offset="0"/><stop id="stop3651" stop-color="#f9a72b" offset="1"/></linearGradient><clipPath id="clipPath3659" clipPathUnits="userSpaceOnUse"><path id="path3661" d="m120.96,501.11-0.418-1.86c-1.116-2.645-2.345-5.135-3.689-7.47l-1.861-4.541-0.17-0.078-0.077,0.744,0.511,2.944,0.574,2.046,0.108,0.729,0.404,1.101,0.186,1.022c0.092,0.858,0.309,1.601,0.651,2.232l0.077,0.899-0.248,0.558-1.256,0.372c-0.33,0-0.526-0.087-0.588-0.264,0-0.557-0.083-0.991-0.249-1.301l-4.618-7.115-2.682-4.634c-0.279-0.485-0.537-0.697-0.775-0.635l-0.154,0.186,0.666,2.698,0.666,4.617,0.186,0.342v0.573l0.759,2.48,0.063,1.286,0.433,1.395-0.185,0.372c-0.496,0.362-0.987,0.579-1.472,0.651-0.3,0.062-0.476-0.212-0.527-0.821l-1.256-1.768-0.419-0.836c-0.227-0.434-0.651-0.837-1.27-1.209l-2.325-0.728,2.898-0.187,0.589-0.185,0.108-1.193-0.17-3.798-0.171-0.837v-1.658l-0.263-1.845-1.504-8.122c-0.226-0.671-0.522-1.224-0.883-1.658v-0.372c1.147-0.455,1.865-0.423,2.154,0.093l0.233,2.123,0.93,2.775c0.341,1.105,1.127,2.95,2.356,5.533l2.79,4.634,0.651,1.565,1.008,1.567,0.263,0.17c0.041-1.467,0.181-2.258,0.418-2.372v-1.519l-0.681-3.317-0.574-4.882-0.093-3.952c0.062-0.62,0.583-0.878,1.565-0.775l0.45,0.387-0.171,1.302c0.062,1.044,0.615,3.441,1.659,7.192l1.936,5.083,2.016,4.433,0.186,0.094,0.17-0.279,0.077-1.659,0.171-0.387,0.589,0.093,0.094-0.713-0.358-4.169,0.094-0.186-0.341-8.324,0.247-3.332c0-0.413,0.197-0.593,0.59-0.542,0.072-0.176,0.247-0.331,0.526-0.465,0.775,0.309,1.22,0.377,1.333,0.201l0.341,0.357c-0.186,0.299-0.165,0.703,0.062,1.208l0.837,1.659c0.114,0.609,0.46,1.441,1.039,2.496l0.062,2.216-0.418-0.187c-0.166-0.671-0.393-1.316-0.683-1.937l-1.085-1.766-0.589-0.358-0.139,0.202-0.093,1.922,0.589,12.555,0.48,3.161v1.286l0.357,1.753c-0.195,0.651-0.833,0.977-1.915,0.977-0.239,0-0.499-0.016-0.782-0.048"/></clipPath><clipPath id="clipPath3669" clipPathUnits="userSpaceOnUse"><path id="path3671" d="m0.43817-0.10164,0.19268,0,0,0.19986-0.19268,0,0-0.19986z"/></clipPath><linearGradient id="linearGradient3673" gradientUnits="userSpaceOnUse" gradientTransform="matrix(150.33403,-82.882053,-82.882053,-150.33403,33.128891,532.01356)"><stop id="stop3675" stop-color="#FFF" offset="0"/><stop id="stop3677" stop-color="#f9a72b" offset="1"/></linearGradient><clipPath id="clipPath3685" clipPathUnits="userSpaceOnUse"><path id="path3687" d="m141.02,499.88-1.084-3.177-2.511-5.813-0.264-1.472-1.612-3.348-2.139-2.822-2.696-4.199c-0.651-0.899-1.064-1.318-1.241-1.255,0.063,0.361,0,0.635-0.185,0.821,0.123,0.599,0.123,1.079,0,1.441l0.356,2.992,0.263,1.023v0.619l0.543,1.907,0.093,1.1,0.356,1.085v0.822l0.806,3.363,1.162,3.828,0.187,0.171,0.093,0.651c-0.186,0.289-0.878,0.434-2.077,0.434l-0.434-0.264-1.968-0.356c-0.362-0.186-0.605-0.491-0.729-0.915l0.465-0.093,2.046,0.28,0.093-0.559-1.875-7.997-1.427-7.997c-0.124-0.486-0.124-0.822,0-1.007l-0.092-2.899c0.175-0.796,0.563-1.101,1.163-0.915l0.356-0.279c1.074,0,1.818,0.248,2.231,0.744l0.279,1.085,1.504,3.363,3.146,5.27c0.713,0.61,1.188,0.827,1.426,0.651l0.093-0.093-0.093-4.727c0-0.672,0.212-1.581,0.635-2.728,0.538-1.219,1.194-2.16,1.969-2.821l1.07-0.558,2.603-0.093c0.289-0.061,0.945,0.124,1.969,0.558l1.333,1.272c1.725,2.303,2.474,3.637,2.247,3.998l-0.279,0.279-0.264-0.108-1.797-2.62-1.427-1.287c-1.373-0.723-2.624-0.961-3.75-0.712-0.248-0.062-0.816,0.935-1.705,2.99-0.423,2.119-0.579,3.757-0.465,4.914l0.543,3.813,0.635,2,0.186,1.27,0.341,0.821,0.465,2.17c0.95,2.739,1.544,4.226,1.782,4.464v0.465c-0.507,0.428-1.012,0.642-1.51,0.642-0.273,0-0.545-0.065-0.815-0.192"/></clipPath><clipPath id="clipPath3695" clipPathUnits="userSpaceOnUse"><path id="path3697" d="m0.56927-0.1033,0.18357,0,0,0.19005-0.18357,0,0-0.19005z"/></clipPath><linearGradient id="linearGradient3699" gradientUnits="userSpaceOnUse" gradientTransform="matrix(150.3315,-82.88066,-82.88066,-150.3315,38.145849,541.10935)"><stop id="stop3701" stop-color="#FFF" offset="0"/><stop id="stop3703" stop-color="#f9a72b" offset="1"/></linearGradient><clipPath id="clipPath3711" clipPathUnits="userSpaceOnUse"><path id="path3713" d="m162.4,499.37c-0.113-0.454-0.651-1.549-1.612-3.286l-2.433-2.448-5.89-6.897c-0.392-0.394-0.676-0.564-0.852-0.512l-0.078,0.171,1.256,4.37,0.418,0.852,0.093,0.931,1.008,1.844,0.17,1.519c0.114,0,0.31,0.532,0.59,1.597v0.681c-0.166,0.331-1.034,0.553-2.605,0.667l-0.263-0.078-0.418-0.511-0.419-1.179-1.425-2.185c-0.394-0.62-0.539-1.156-0.435-1.612-0.051-0.165,0.315-0.413,1.101-0.743l-0.419-2.62-0.247-0.496-0.76-3.286-0.512-1.442-0.17-1.084-0.76-2.356-0.247-1.348-0.171-0.263-0.078-0.667c-0.454-1.064-0.65-1.931-0.589-2.604l0.667-0.434,0.588,0.093,0.094-0.093c0.609,0,1.002,0.197,1.178,0.589l0.325,2.2,2.201,4.96,1.349,2.186,1.425,1.519,1.519,2.108c0.217,0.392,0.527,0.532,0.93,0.418l0.914-0.077,0.171-0.171c0.062-0.165-0.217-0.981-0.837-2.448l-0.93-3.705-0.418-2.356-0.093-3.363c0.062-1.735,0.657-3.028,1.782-3.875,0.723-0.443,1.339-0.64,1.845-0.588l1.1,0.17,0.419,0.837,0.418,0.512,1.007,2.184,0.683,1.008,1.348,3.038,1.921,3.534v0.511l-2.355-3.627-2.434-4.386-1.426-1.922c-0.289-0.289-0.542-0.434-0.759-0.434l-0.434,0.341-0.589,1.689c-0.217,2.016-0.217,3.251,0,3.705l-0.078,0.759c0,0.393,0.083,0.672,0.249,0.837v0.512l0.852,3.27v0.512l0.325,0.759v0.419c0.228,0.113,0.316,0.309,0.264,0.588l0.667,1.349v0.511l0.837,1.504v0.433l0.681,1.179,0.589,1.674c0.621,0.899,1.013,1.349,1.179,1.349l0.511,1.348,0.666,0.681,0.078,0.496c-0.336,0.508-0.929,0.762-1.778,0.762-0.274,0-0.575-0.028-0.904-0.08"/></clipPath><clipPath id="clipPath3721" clipPathUnits="userSpaceOnUse"><path id="path3723" d="m0.67041-0.089666,0.17389,0,0,0.18874-0.17389,0,0-0.18874z"/></clipPath><linearGradient id="linearGradient3725" gradientUnits="userSpaceOnUse" gradientTransform="matrix(150.33064,-82.880182,-82.880182,-150.33064,42.965841,549.85018)"><stop id="stop3727" stop-color="#FFF" offset="0"/><stop id="stop3729" stop-color="#f9a72b" offset="1"/></linearGradient><clipPath id="clipPath3737" clipPathUnits="userSpaceOnUse"><path id="path3739" d="m172.86,506.24c-0.044,0-0.083-0.005-0.116-0.017-0.341-0.381-0.594-1.152-0.76-2.308l-0.511-1.504-0.992-1.876,0.108-1.007-0.108-0.077,0.186-0.062,0.201,0.295,1.055,0.355c0.444,0.424,0.697,0.755,0.759,0.993l1.27,1.224,0.884,0.373,0.14,0.79c0.041,0.083-0.109,0.32-0.449,0.713l0.154,0.728-0.372,0.697c-0.686,0.455-1.168,0.683-1.447,0.683h-0.002m-3.851-10.23c0.092-0.103,0.092-0.563,0-1.38-0.249-0.475-0.373-0.857-0.373-1.146-0.051-0.248-0.201-0.46-0.449-0.636-0.052-0.723-0.196-1.23-0.434-1.519l-0.186-0.867-0.511-1.504-0.434-1.952-0.248-0.435-0.589-2.232-0.744-3.735-0.202-2.666c0.042-1.343,0.186-2.108,0.435-2.294l0.588,0.077c0-0.34,0.325-0.464,0.977-0.371,0.444,0.579,1.064,1.033,1.859,1.364l0.232,0.294h0.141l1.209,1.286,1.27,1.737,1.271,1.859,0.434,0.946-2.154-2.372-2.62-2.588-1.487-1.007h-0.232c-0.496,0.051-0.569,1.493-0.218,4.323l1.488,5.518,0.232,0.373v0.293l1.566,3.519,1.349,1.519c0.289,0.465,0.387,0.749,0.294,0.853-0.196,0.486-0.274,1.136-0.232,1.953-0.042,0.185-0.362,0.351-0.961,0.496l-0.31,0.294-0.823,0.139-0.138-0.139zm4.773-12.461,0.17-0.063-0.092,0.217-0.078-0.154z"/></clipPath><clipPath id="clipPath3747" clipPathUnits="userSpaceOnUse"><path id="path3749" d="m0.74436-0.094387,0.13906,0,0,0.18668-0.13906,0,0-0.18668z"/></clipPath><linearGradient id="linearGradient3751" gradientUnits="userSpaceOnUse" gradientTransform="matrix(150.33357,-82.881797,-82.881797,-150.33357,47.481449,558.04638)"><stop id="stop3753" stop-color="#FFF" offset="0"/><stop id="stop3755" stop-color="#f9a72b" offset="1"/></linearGradient><clipPath id="clipPath3763" clipPathUnits="userSpaceOnUse"><path id="path3765" d="m179.06,500.25c-0.051-0.547-0.299-1.373-0.743-2.479l-0.899-3.906c-0.351-0.455-1.483-0.604-3.394-0.449l-0.156,0.154h-1.642c-0.155-0.309-0.383-0.486-0.682-0.526l-0.078-0.388,0.232-0.294c1.499,0.103,2.3,0.103,2.402,0l0.234-0.155,2.619,0.232,0.155-0.155c-0.145-0.196-0.197-0.469-0.155-0.821l-0.666-3.007,0.077-0.078-0.311-0.837-0.154-1.72-0.295-1.441-0.077-1.426-0.372-2.558-0.154-3.456c0.102-1.405,0.505-2.108,1.207-2.108l2.558,0.976c0.3,0,0.475,0.378,0.528,1.132l0.682,1.813c0.443,0.651,0.666,1.075,0.666,1.272l0.31,0.371,1.193,2.34c0.3,0.6,0.475,1.101,0.527,1.504l0.527,1.054,0.682,3.084,0.372,0.666v0.311c0.403,0.795,0.578,1.297,0.527,1.504l-0.372-0.079-1.131-3.084-1.427-3.239-2.402-4.278c-0.103-0.207-0.305-0.309-0.605-0.309l-0.603,0.309,0.077,1.271-0.156,1.891c0.156,0.599,0.182,0.997,0.079,1.193l0.216,1.055,0.155,3.394,0.449,2.697c-0.051,0.403,0.3,0.682,1.054,0.837,0.951-0.104,2.305-0.104,4.061,0,0.403,0.041,0.682-0.01,0.837-0.155l2.171-0.078c0.506,0,0.883-0.098,1.13-0.294h1.427l0.077,0.527-0.899,0.216-0.294-0.077-0.682,0.232c-1.602,0.105-2.579,0.105-2.93,0-0.206,0.301-1.312,0.475-3.316,0.528-0.145-0.053-0.496,0.124-1.054,0.527l-1.054,0.077c-0.052,0.351,0.098,1.276,0.449,2.774l0.527,1.365c0.052,0.898,0.202,1.621,0.449,2.169-0.307,0.216-0.615,0.323-0.924,0.323-0.343,0-0.685-0.134-1.029-0.401"/></clipPath><clipPath id="clipPath3773" clipPathUnits="userSpaceOnUse"><path id="path3775" d="m0.79389-0.098487,0.16623,0,0,0.18332-0.16623,0,0-0.18332z"/></clipPath><linearGradient id="linearGradient3777" gradientUnits="userSpaceOnUse" gradientTransform="matrix(150.33466,-82.882402,-82.882402,-150.33466,48.231646,559.40728)"><stop id="stop3779" stop-color="#FFF" offset="0"/><stop id="stop3781" stop-color="#f9a72b" offset="1"/></linearGradient><clipPath id="clipPath3789" clipPathUnits="userSpaceOnUse"><path id="path3791" d="m197.95,499.05-0.341-0.434-4.742-9.687-0.59-2.619-0.961-2.217-0.248-0.248-0.248,0.326-0.433,6.974c-0.332,2.49-0.641,4.046-0.93,4.665-0.558,0.228-1.127,0.315-1.706,0.264-0.34-0.062-0.454-0.46-0.34-1.193l-0.589-1.706-0.093-0.93-0.156-0.341-0.093-1.348,0.59-0.418c0.175,0.392,0.459,0.646,0.852,0.759l0.341,0.589h0.17l0.357-1.271,0.496-4.076-0.155-5.704c-0.227-0.898-0.341-1.916-0.341-3.053-0.413-0.961-0.564-1.498-0.449-1.612,0.3-0.517,0.924-0.377,1.875,0.419,0.341,0.341,0.542,1.214,0.604,2.619l0.76,3.146,2.217,5.704,0.758,0.93,0.341,0.093,0.496-0.93v-1.612l0.171-0.279v-1.86l-0.171-0.419c-0.217-2.376-0.526-4.53-0.929-6.463-0.734-2.717-1.555-5.093-2.465-7.13-0.506-1.239-1.462-2.907-2.867-5.005l-2.232-2.387c-0.899-0.796-1.777-1.452-2.634-1.968l-1.674-0.683-1.551-0.325h-1.255c-1.189,0.279-2.268,0.615-3.24,1.008l-1.441,1.457-0.666,1.936,0.078,2.31,0.511,1.596v0.791h-0.171l-0.868-2.139c-0.341-1.405-0.454-2.366-0.341-2.882l0.264-1.442c0.114-0.455,0.569-1.111,1.364-1.968,1.012-0.9,2.935-1.323,5.765-1.271,1.985-0.115,4.278,0.769,6.882,2.65l1.969,1.938,1.255,1.627,1.721,2.789c1.064,2.099,1.539,3.173,1.425,3.225l0.434,0.697,0.248,0.93,0.248,0.341,0.434,1.178,1.457,6.307-0.094,0.156,0.264,0.682,0.667,5.363,0.171,0.418,0.17,2.386c0.341,1.468,0.455,2.233,0.341,2.295,0.228,0.671,0.423,1.689,0.589,3.053l0.775,2.899v0.759c-0.223,0.298-0.603,0.448-1.142,0.448-0.263,0-0.565-0.036-0.904-0.107"/></clipPath><clipPath id="clipPath3799" clipPathUnits="userSpaceOnUse"><path id="path3801" d="m0.80869-0.13502,0.2482,0,0,0.27977-0.2482,0,0-0.27977z"/></clipPath><linearGradient id="linearGradient3803" gradientUnits="userSpaceOnUse" gradientTransform="matrix(150.33396,-82.882012,-82.882012,-150.33396,46.94178,557.06757)"><stop id="stop3805" stop-color="#FFF" offset="0"/><stop id="stop3807" stop-color="#f9a72b" offset="1"/></linearGradient><clipPath id="clipPath3815" clipPathUnits="userSpaceOnUse"><path id="path3817" d="m53.245,463.01-3.472-2.326-0.728-0.697-0.869-0.542c-1.291-1.54-1.912-2.465-1.859-2.775l-0.667-1.007-1.302-3.333-0.078-0.465-0.279-0.557c0.104-0.042,0-0.496-0.309-1.364v-0.713c-0.176-0.518-0.336-1.318-0.481-2.403l-0.062-2.65c0-2.108,0.574-4.123,1.721-6.044,0.381-0.507,1.053-1.2,2.015-2.078l1.829-1.007c0.857-0.475,2.417-0.712,4.679-0.712,1.84,0.164,3.654,0.613,5.441,1.347,1.199,0.517,2.283,1.24,3.255,2.17l0.202,0.76h-0.14c-0.434-0.414-1.612-0.899-3.534-1.457-0.3-0.052-0.398-0.238-0.294-0.558l0.728,0.093c0,0.093,0.165,0.17,0.496,0.232l0.093-0.232-0.17-0.17c-0.197,0.113-0.749,0.01-1.658-0.311l-1.736-0.155c-1.107,0.31-1.923,0.393-2.449,0.249-0.3,0.257-0.688,0.387-1.163,0.387l-0.294,0.294-1.085,0.311-1.147,0.774-1.162,1.55-0.357,0.17-0.45,0.605-0.728,1.86c-0.29,0.723-0.378,1.241-0.264,1.549l-0.371,1.086-0.217,2.03c-0.042,2.831,0.656,5.745,2.091,8.742l2.248,2.867,1.225,1.162,1.023,0.682,2.728,1.395,0.588,0.078,0.589,0.309c0.672,0,1.059,0.083,1.163,0.249h2.077l1.379-0.387,0.791-0.481c0.64-0.817,0.96-1.302,0.96-1.457l0.357-0.388,0.433-0.17,0.063,0.078,0.512-0.078c0.816,0.155,1.348,0.388,1.595,0.698,0.332,0.516,0.569,1.265,0.714,2.247-0.435,1.085-0.775,1.653-1.023,1.705-0.227,0.207-0.728,0.207-1.503,0-0.28,0-0.543,0.103-0.791,0.31-0.972,0.268-2.325,0.402-4.061,0.402-2.025-0.309-4.123-0.935-6.292-1.874m-0.931-27.961-1.379,0.17c-1.013,0.404-1.643,0.713-1.89,0.93-0.289,0.207-0.383,0.388-0.279,0.543l0.728,0.077c1.487-0.568,3.172-1.085,5.052-1.55l0.062-0.17-0.433-0.139c-1.003,0.092-1.53,0.092-1.582,0l-0.279,0.139z"/></clipPath><clipPath id="clipPath3825" clipPathUnits="userSpaceOnUse"><path id="path3827" d="m0.23986-0.10493,0.2072,0,0,0.2227-0.2072,0,0-0.2227z"/></clipPath><linearGradient id="linearGradient3829" gradientUnits="userSpaceOnUse" gradientTransform="matrix(150.33673,-82.883546,-82.883546,-150.33673,3.9234993,479.04187)"><stop id="stop3831" stop-color="#FFF" offset="0"/><stop id="stop3833" stop-color="#f9a72b" offset="1"/></linearGradient><clipPath id="clipPath3841" clipPathUnits="userSpaceOnUse"><path id="path3843" d="m70.631,464.99c0.145-0.527,0.17-0.884,0.077-1.069l0.063-0.387-0.279-3.705-0.14-0.403c-0.052-1.86-0.171-2.925-0.356-3.193,0-1.23-0.093-2.377-0.279-3.441l-0.837-8.152-0.202-0.868-0.139-1.659-0.713-3.982-1.132-3.627-0.062-1.008c0.32-0.226,0.956-0.114,1.907,0.341,0.134,0.083,0.227,0.497,0.279,1.24l0.48,0.93c0.744,3.41,1.772,6.193,3.085,8.354,1.312,1.683,2.247,3.016,2.805,3.998l2.262,2.651c0.135,0.134,0.362,0.176,0.683,0.125l0.496-0.466,0.356-0.604c-0.238-1.716-0.264-3.948-0.077-6.696l-0.063-0.046,0.14-0.403-0.077-0.264c0-1.86,0.284-3.524,0.852-4.991,0.703-1.9,1.664-3.089,2.883-3.565l1.534-0.077,1.41,0.403,0.558,0.449c0.476,0.982,0.667,1.85,0.574,2.604l0.14,0.388-0.078,0.124,0.155,1.472-0.574,0.93c-0.092-1.333-0.443-2.836-1.054-4.51l-0.712-0.868-0.496-0.062-0.62,0.465-0.419,1.193-0.558,0.466c-0.145,0.051-0.196,0.469-0.155,1.254l-0.341,0.341-0.356,1.256c0.092,0.093,0.092,0.356,0,0.791l-0.217,0.464c-0.187,0.796-0.253,1.572-0.202,2.326l-0.077,2.325-0.264,0.449,0.341,2.076-0.155,0.202,0.217,1.705,0.279,0.604,1.07,4.108-0.574,0.325c-0.703,0.052-1.399,0.009-2.091-0.124l-0.358-0.929-5.331-5.891-2.604-3.517-0.558-0.605c-0.093-0.134-0.258-0.181-0.496-0.139v0.604c0.475,0.351,0.734,0.899,0.775,1.643l0.217,0.403c0.041,0.227-0.005,0.428-0.14,0.604l0.202,1.845-0.062,0.279,0.279,1.596,0.124,0.201-0.124,1.442c0.134,0.713,0.46,1.508,0.976,2.387,0.042,0.713-0.005,1.137-0.139,1.271l0.062,1.782,0.496,1.008v0.464l0.573,2.388-0.573,0.402-0.356,0.667-0.063,1.24c0.279,0.671,0.372,1.162,0.279,1.472,0.093,0.093-0.072,0.326-0.496,0.697l-0.697,0.078c-0.558-0.083-1.003-0.61-1.333-1.581"/></clipPath><clipPath id="clipPath3851" clipPathUnits="userSpaceOnUse"><path id="path3853" d="m0.35496-0.13319,0.19723,0,0,0.22698-0.19723,0,0-0.22698z"/></clipPath><linearGradient id="linearGradient3855" gradientUnits="userSpaceOnUse" gradientTransform="matrix(150.33619,-82.88325,-82.88325,-150.33619,6.9623909,484.55394)"><stop id="stop3857" stop-color="#FFF" offset="0"/><stop id="stop3859" stop-color="#f9a72b" offset="1"/></linearGradient><clipPath id="clipPath3867" clipPathUnits="userSpaceOnUse"><path id="path3869" d="m92.857,458.47-0.822-0.852-1.348-2.279-0.76-1.751-0.232-0.915-0.512-0.929-0.092-0.558-0.838-2.108c-0.619-2.573-0.986-4.386-1.1-5.441l-0.062-2.572c-0.165-0.548,0.078-1.932,0.728-4.154,0.579-1.22,1.478-2.072,2.697-2.557,0.496-0.187,1.111-0.249,1.845-0.187,0.888-0.258,1.865,0.321,2.929,1.737l1.426,2.511,0.418,0.991,1.427,4.697c0,0.185,0.304,0.346,0.913,0.48l0.59,3.022,0.341,0.822c0.227,1.043,0.31,1.937,0.247,2.681l0.358,1.844-0.264,1.55-0.264,0.652-0.929,0.728-0.233,0.558-1.008,0.821-2.603,0.28-0.822,0.557-0.946,0.372h-1.084zm-0.915-23.481c-0.785,0.372-1.534,1.571-2.247,3.596l-0.264,2.48v1.379c0.331,2.16,1.199,5.14,2.604,8.943l1.163,1.922,1.007,0.743,0.418,0.729c0.445,0.311,0.863,0.248,1.256-0.186l1.084-0.186,0.42,0.372c0.95-1.044,1.235-3.007,0.852-5.89l0.077-0.185c-0.175-1.23-0.428-2.46-0.759-3.689,0-0.424,0.113-0.703,0.341-0.837v-0.449l-1.178-3.318c-0.558-1.332-1.344-2.655-2.355-3.968l-1.504-1.177c-0.356-0.199-0.622-0.298-0.8-0.298-0.044,0-0.081,0.007-0.115,0.019"/></clipPath><clipPath id="clipPath3877" clipPathUnits="userSpaceOnUse"><path id="path3879" d="m0.48128-0.083268,0.14092,0,0,0.1649-0.14092,0,0-0.1649z"/></clipPath><linearGradient id="linearGradient3881" gradientUnits="userSpaceOnUse" gradientTransform="matrix(150.33401,-82.882046,-82.882046,-150.33401,10.95469,491.79307)"><stop id="stop3883" stop-color="#FFF" offset="0"/><stop id="stop3885" stop-color="#f9a72b" offset="1"/></linearGradient><clipPath id="clipPath3893" clipPathUnits="userSpaceOnUse"><path id="path3895" d="m112.18,461.06-0.791-2.031-2.433-2.929-0.45-0.264c-0.289,0.351-0.258,0.646,0.094,0.884v0.526c-0.403,0.187-0.78,0.605-1.131,1.256l-1.845,0.171-0.527-0.358c0.061-0.939,0.005-1.528-0.171-1.765l-0.527-4.868-1.736-10.895-0.79-3.364-0.512-3.363c0.29-0.537,0.956-0.505,2,0.093l1.131,7.161c0.755,3.719,1.277,5.905,1.565,6.555,0.941,2.718,2.196,5.286,3.767,7.704,0.465,0.651,0.816,0.914,1.054,0.79l0.326-0.433,0.79-0.543v-1.148l0.186-0.262,0.775-0.187,1.225,0.357,0.356,2.309,0.263,0.62c0,0.651,0.114,1.271,0.341,1.86v1.411c0,0.588-0.49,0.945-1.472,1.069-0.879,0-1.374-0.119-1.488-0.356"/></clipPath><clipPath id="clipPath3903" clipPathUnits="userSpaceOnUse"><path id="path3905" d="m0.54666-0.090912,0.14873,0,0,0.18104-0.14873,0,0-0.18104z"/></clipPath><linearGradient id="linearGradient3907" gradientUnits="userSpaceOnUse" gradientTransform="matrix(150.3343,-82.882201,-82.882201,-150.3343,14.861098,498.87873)"><stop id="stop3909" stop-color="#FFF" offset="0"/><stop id="stop3911" stop-color="#f9a72b" offset="1"/></linearGradient><clipPath id="clipPath3919" clipPathUnits="userSpaceOnUse"><path id="path3921" d="m129.84,458.27-1.086-3.177-2.511-5.814-0.263-1.471-1.611-3.348-2.14-2.822-2.697-4.199c-0.651-0.899-1.065-1.318-1.239-1.255,0.062,0.361,0,0.635-0.187,0.821,0.124,0.599,0.124,1.079,0,1.441l0.357,2.992,0.263,1.022v0.62l0.543,1.907,0.093,1.1,0.356,1.086v0.821l0.807,3.363,1.162,3.828,0.186,0.171,0.093,0.651c-0.186,0.288-0.879,0.434-2.077,0.434l-0.434-0.264-1.969-0.356c-0.361-0.186-0.604-0.491-0.729-0.915l0.466-0.093,2.046,0.28,0.093-0.559-1.876-7.997-1.425-7.997c-0.124-0.487-0.124-0.822,0-1.008l-0.093-2.898c0.175-0.796,0.563-1.101,1.162-0.915l0.356-0.279c1.075,0,1.819,0.248,2.232,0.744l0.279,1.085,1.504,3.364,3.146,5.269c0.714,0.609,1.189,0.827,1.426,0.651l0.093-0.093-0.093-4.727c0-0.672,0.212-1.581,0.636-2.728,0.537-1.219,1.193-2.16,1.968-2.821l1.069-0.558,2.604-0.093c0.29-0.062,0.946,0.124,1.968,0.558l1.334,1.271c1.725,2.304,2.474,3.637,2.246,3.999l-0.278,0.279-0.263-0.108-1.799-2.62-1.425-1.286c-1.375-0.724-2.625-0.962-3.751-0.713-0.249-0.062-0.817,0.935-1.705,2.991-0.424,2.118-0.579,3.755-0.464,4.913l0.541,3.813,0.636,1.999,0.186,1.271,0.341,0.821,0.465,2.17c0.95,2.738,1.544,4.226,1.782,4.464v0.465c-0.508,0.427-1.011,0.641-1.511,0.641-0.272,0-0.544-0.064-0.813-0.191"/></clipPath><clipPath id="clipPath3929" clipPathUnits="userSpaceOnUse"><path id="path3931" d="m0.62932-0.1033,0.18357,0,0,0.19005-0.18357,0,0-0.19005z"/></clipPath><linearGradient id="linearGradient3933" gradientUnits="userSpaceOnUse" gradientTransform="matrix(150.3315,-82.88066,-82.88066,-150.3315,17.945411,504.46915)"><stop id="stop3935" stop-color="#FFF" offset="0"/><stop id="stop3937" stop-color="#f9a72b" offset="1"/></linearGradient><clipPath id="clipPath3945" clipPathUnits="userSpaceOnUse"><path id="path3947" d="m145.03,456.78-0.542-0.713-0.976-0.806-0.264-0.713c-0.186-0.062-0.573-0.599-1.163-1.612-0.237-1.064-0.325-1.746-0.263-2.046l-0.186-0.527c0-0.775,0.088-1.224,0.264-1.348l0.185-1.241,1.07-2.138-1.612-1.612-0.263-0.093-2.31-2.403-1.612-2.045c-0.475-0.662-0.831-1.674-1.069-3.039-0.114-0.65,0.449-1.42,1.69-2.308h0.635l1.07-0.357,2.929-0.186c1.725,0.177,2.944,0.594,3.657,1.256l0.992,0.263,1.148,1.24,0.542,1.162,0.263,1.69-0.356,2.061-0.264,0.356-0.619,2.047-1.427,2.588v0.619l0.528,0.807,2.138,1.519,1.069,0.449c0.414,0.589,0.92,1.064,1.519,1.426l1.07,0.171,1.255-0.45,0.559,3.627-2.79-1.844-1.968-1.69-0.977-1.163c-1.84-1.187-2.971-1.664-3.395-1.425-0.888,1.311-1.033,2.712-0.433,4.2l1.069,1.503,0.17,0.636,1.613,1.953c0.112-0.062,0.588,0.237,1.425,0.899l1.24,1.069v0.62l-0.171,0.186-1.782,0.357c-0.299-0.062-1.519-1.044-3.658-2.945m-6.152-21.761-0.713,0.543c-0.301,0.237-0.45,0.95-0.45,2.139l1.255,2.495,1.782,2.139c0.352,0.299,0.709,0.713,1.07,1.239l1.333,1.163,0.449,0.093,0.713-1.162,0.45-0.357,0.527-1.07,0.542-0.449c0.114,0,0.321-0.595,0.62-1.783v-2.138c-0.413-1.064-0.919-2.015-1.518-2.852l-0.806-0.264c-0.528-0.237-1.178-0.355-1.953-0.355l-1.612-0.094c-0.114,0.176-0.677,0.413-1.689,0.713"/></clipPath><clipPath id="clipPath3955" clipPathUnits="userSpaceOnUse"><path id="path3957" d="m0.72897-0.095599,0.16792,0,0,0.18536-0.16792,0,0-0.18536z"/></clipPath><linearGradient id="linearGradient3959" gradientUnits="userSpaceOnUse" gradientTransform="matrix(150.33903,-82.884811,-82.884811,-150.33903,22.97055,513.59723)"><stop id="stop3961" stop-color="#FFF" offset="0"/><stop id="stop3963" stop-color="#f9a72b" offset="1"/></linearGradient></defs><g id="g3123" transform="matrix(1.25,0,0,-1.25,0,36)"><text id="text3311" transform="matrix(1,0,0,-1,44.5565,395.1067)"><tspan id="tspan3313" style="writing-mode:lr-tb;" font-family="Myriad Pro" fill-rule="nonzero" font-size="15px" font-stretch="normal" font-variant="normal" y="0" x="0 12.105 20.370001 26.309999 29.82 36.540001 39.720001 49.709999 53.220001 57.973499 65.488503 72.403503 77.278503 85.513496 90.418503 93.598503 103.5885 107.6985 110.8035 113.3685 120.6435 124.1535 136.6635 139.84351 147.4335 154.6635 162.98849 170.50349 174.0435" font-weight="normal" fill="#ffffff">Music Director Dr. Tim Pahel </tspan></text>
<g id="g3315" transform="matrix(0.52552569,0,0,0.52085224,-79.280403,-217.49244)"><g id="g3317" clip-path="url(#clipPath3319)"><g id="g3323" transform="translate(219.7147,423.7221)"><path id="path3325" d="m0,0c-5.406,4.581-13.091,6.303-19.847,4.718-3.393-0.714-6.586-2.036-9.562-3.727-0.32-0.186-0.637-0.376-0.953-0.571,0.313,1.616,0.621,3.236,0.909,4.856-0.034,0.013-0.087-0.087-0.073,0.092,0.063,0.558,0.257,0.964,0.319,1.524l-0.048,0.056c0.098,0.417,0.207,0.85,0.312,1.294l0.395,2.497c-0.025-0.016-0.045-0.021-0.038,0.065,0.045,0.347,0.148,0.815,0.239,1.306l0.03,0.22c-0.003,0.06-0.02,0.079-0.031,0.092,0.041,0.222,0.081,0.419,0.119,0.6,0.313,2.449,0.613,4.941,0.951,7.637,0.046,0.578,0.093,1.156,0.164,1.706,0.12,0.808,0.335,1.821,0.478,2.602-0.218-0.06,0.019,1.877-0.247,1.555,0.095,0.521,0.239,1.302,0.191,1.359-0.143,0.168-0.264,0.611-0.139,1.941,0-0.005-0.001-0.009-0.003-0.014-0.008-0.056-0.015-0.101-0.02-0.109-0.732-3.811-1.318-6.603-2.007-10.528-0.153-1.406-1.745-10.38-2.202-12.761l-0.355-0.572c-0.226-1.235-0.764-3.68-0.919-4.891-0.529,0.69-1.12,1.336-1.775,1.914-0.965,0.826-3.617,2.729-7.468,3.531-3.82,0.884-8.556,0.793-13.203,0.053-2.295-0.367-4.58-0.872-6.771-1.478,1.532,3.615,2.82,6.634,3.585,8.393l0.272,0.656c1.682,3.919,3.671,8.7,4.935,12.085,0.556,1.56,1.105,3.157,1.655,4.743-0.366-0.691-0.708-1.33-1.013-1.88,0.672,1.568,1.345,3.135,1.532,3.766,1.256,3.413,0.267,1.598-0.533,0.419-0.504-0.878-0.146,0.446-0.872-0.955,0.447,1.042,0.671,1.564,1.121,2.611-0.056,0.164-1.31-3.247-1.177-2.447,0.467,0.99,0.879,2.145,1.327,3.188-0.297-0.301-1.587-3.6-1.66-3.379,0.206,0.578,1.436,2.857,1.345,3.135-0.018,0.054-0.467-0.99-0.691-1.512,1.308,3.244,1.891,5.09,0.454,2.232,0.438,1.018,1.123,2.43,1.556,3.52l-0.006-0.008c-0.235-0.536-0.664-1.449-0.877-1.946l0.787,1.834-0.21-0.29c-0.215-0.448-0.427-0.9-0.631-1.377l0.522,1.219c-0.186-0.28-0.39-0.608-0.605-0.97-0.727-1.402-1.483-2.72-1.818-3.503-2.765-6.301-5.516-12.638-8.206-18.964,0.061-0.038,0.27,0.27,0.078-0.266-0.636-1.678-1.418-2.911-2.054-4.59l0.055-0.164c-0.586-1.26-1.209-2.566-1.833-3.904l-0.781-1.882-0.388-0.939-0.193-0.47-0.048-0.116-0.024-0.059-0.002-0.004h0.001-0.001c-0.178,0.186-0.353,0.371-0.001,0-0.063-0.023-0.127-0.047-0.194-0.081,0,0-0.721-2.15-0.638-3.401,0,0,2.051,0.925,3.032,1.165,0.009-0.01,0.017-0.017,0.025-0.026l0.002,0.001,0.005,0.001,0.012,0.005,0.023,0.009,0.218,0.078c1.215,0.424,2.48,0.809,3.74,1.154-0.077,0.024-0.119,0.054,0.132,0.133,1.049,0.299,2.533,0.599,4.071,0.861l0.675,0.133c0.171,0.053,0.21,0.101,0.233,0.13,0.699,0.104,1.321,0.186,1.898,0.238,3.763,0.551,7.665,0.74,11.395-0.163,1.85-0.469,3.631-1.244,5.154-2.432,0.763-0.591,1.442-1.295,2.038-2.085,0.263-0.417,0.6-0.796,0.813-1.255l0.357-0.67,0.091-0.168,0.023-0.042c-0.433,0.105-0.305,0.073,0-0.001,0.006-0.022,0.274-0.925,0.071-1.564l1.206,1.251,0.084,0.087,0.301,0.245c1.365,1.141,2.876,2.165,4.406,2.997,2.274,1.233,5.429,2.274,7.892,2.691-0.511,0.54,5.682,1.163,4.466,1.427,1.748,0.041,4.316-0.477,4.471-0.4,0.423,0.145,2.008,0.613,6.41-1.457,1.72-0.837,3.854-2.786,4.394-3.157,0.871-0.577-1.722,1.725-0.853,1.153" fill="#ef2e32" fill-rule="nonzero"/></g><g id="g3327" transform="translate(195.6098,458.4701)"><path id="path3329" d="M0,0-0.134,0.108-0.181,0.095,0,0z" fill="#967e72" fill-rule="nonzero"/></g><g id="g3331" transform="translate(221.9935,465.7516)"><path id="path3333" d="m0,0-0.005,0.002-0.019,0.012-0.037,0.022c-0.407,0.228-0.871,0.532-1.436,0.817-1.117,0.588-2.591,1.181-4.331,1.569-3.487,0.832-7.96,0.433-11.996-1.054-2.833-1.019-5.632-3.004-8.08-4.932-0.005,0.111-0.01,0.22-0.013,0.329-0.086,0.943-0.276,1.848-0.592,2.664-0.624,1.65-1.707,2.775-2.523,3.445l-0.631,0.442c-3.986,2.52-9.102,2.163-12.333,1.738-1.51-0.243-3.015-0.585-4.49-0.977,0.71,0.061,1.364,0.113,1.937,0.128-1.532-0.225-3.046-0.528-3.608-0.729-3.157-0.909-1.291-0.679-0.016-0.673,0.904,0.068-0.242-0.362,1.152-0.197-0.987-0.198-1.482-0.303-2.468-0.534-0.091-0.119,3.023,0.739,2.378,0.4-0.958-0.155-2.004-0.462-2.981-0.703,0.372-0.046,3.41,0.73,3.293,0.527-0.523-0.129-2.805-0.396-2.945-0.643-0.029-0.044,0.949,0.187,1.44,0.293-3.002-0.761-4.563-1.441-1.806-0.898-0.94-0.233-2.303-0.531-3.246-0.867h0.008c0.468,0.148,1.337,0.362,1.791,0.487l-1.671-0.488,0.31,0.014,1.281,0.332-1.112-0.321c0.293,0.024,0.628,0.062,0.994,0.107,1.355,0.262,2.675,0.397,3.398,0.555,5.671,1.128,12.309,2.093,16.707-0.324,0.045,0.053-0.125,0.264,0.214,0.061,1.091-0.673,1.479-1.563,1.919-2.658l0.138-0.048c0.199-0.891,0.67-1.918,0.547-3.002-0.007-0.002-0.013-0.004-0.018-0.006,0,0,0.003-0.031,0.009-0.078-0.005-0.033-0.005-0.066-0.009-0.098l-0.178-0.529h0.25c0.002-0.022,0.003-0.044,0.005-0.066-0.045-0.037-0.092-0.075-0.137-0.111,0.273-0.074-0.208-0.287,0.017-0.335,0.051-0.011,0.098-0.021,0.147-0.031,0.031-0.797,0-1.801-0.281-2.458,0,0,1.187,0.934,2.342,1.633l0.037-0.024,0.083,0.021-0.067,0.034c0.015,0.009,0.028,0.017,0.041,0.025,0.009-0.003,0.016-0.006,0.024-0.008l0.049-0.039,0.033,0.008c0.308-0.107,0.364-0.048,0.308,0.079l0.039,0.009,0.651,0.511c0.195,0.074,0.37,0.122,0.517,0.134,0,0-0.03,0.067-0.093,0.173l0.989,0.714c0.949,0.65,1.926,1.259,2.924,1.819-0.073,0.01-0.116,0.029,0.078,0.152,0.828,0.478,2.033,1.025,3.299,1.51l0.55,0.236c0.136,0.074,0.161,0.125,0.175,0.157,0.578,0.207,1.099,0.359,1.586,0.49,3.132,1.024,6.516,1.44,9.786,0.615,0.811-0.212,1.622-0.473,2.399-0.835,0.392-0.173,0.783-0.357,1.156-0.581l0.122-0.068v-0.045c-0.031-1.871-0.061-3.77-0.094-5.707,0.022-1.642,0.046-3.283,0.014-4.863-0.076-2.337-0.302-5.312-0.432-7.589,0.425,0.328,0.341-5.231,0.808-4.145-0.086-1.516-0.216-3.795-0.106-3.918,0.326-0.37,0.664-1.559,0.667-5.6-0.032-1.579-0.3-3.994-0.259-4.554,0.066-0.882,0.346,2.032,0.413,1.151,0.721,11.717,1.147,23.014,1.752,34.818,0.002,0.126,0.004,0.274,0.006,0.443l0.007,0.271,0.003,0.146,0.001,0.077v0.009c0.699-1.385-0.949,1.894-0.781,1.557" fill="#f68712" fill-rule="nonzero"/></g><g id="g3335" transform="translate(192.8846,453.5558)"><path id="path3337" d="M0,0c0-0.004-0.001-0.008-0.001-0.011,0.006,0.028,0.012,0.056,0.016,0.084-0.001,0-0.004-0.002-0.004-0.003,0.022,0.168,0.038,0.332-0.002,0.025,0-0.01-0.001-0.018-0.002-0.028-0.018-0.009-0.036-0.027-0.036-0.177,0-0.023,0.002-0.031,0.005-0.025,0.006,0.036,0.014,0.073,0.02,0.109,0.002,0.008,0.003,0.017,0.004,0.026" fill="#967e72" fill-rule="nonzero"/></g><g id="g3339" transform="translate(192.9341,453.8051)"><path id="path3341" d="M0,0c-0.011-0.06-0.022-0.116-0.034-0.176,0.018,0.011,0.034,0.032,0.034,0.176" fill="#967e72" fill-rule="nonzero"/></g></g></g><g id="g3343"><g id="g3345" clip-path="url(#clipPath3347)"><g id="g3351"><g id="g3353"><g id="g3355" clip-path="url(#clipPath3357)"><path id="path3367" d="m60.813,548.13-1.627,0.078c-0.227,0-0.367-0.109-0.419-0.326-0.371,0.113-1.379-0.289-3.022-1.209h-0.279l-0.217-0.232c-0.093,0.112-0.47-0.073-1.131-0.558-0.847-0.538-1.788-1.287-2.821-2.248l-0.838-1.038-0.557-0.465-0.295-0.496-1.039-1.209-1.208-1.752-1.054-1.844-0.635-1.364-0.838-2.479-0.077-0.791-0.139-0.325c-0.135-0.807-0.176-1.721-0.125-2.744,0-0.899,0.373-2.449,1.117-4.65,0.134-0.743,0.718-1.353,1.751-1.829l0.837-0.883,1.627-1.441,0.217-0.326,1.116-0.806,0.915-0.465,2.325-0.728,2.619-0.078,0.341-0.496c0.289-0.206,0.641-0.119,1.054,0.263l0.992,0.063,2.107,0.092c0.558-0.216,0.956-0.299,1.194-0.247l0.914,0.155,0.775,0.729,1.272,2.308,0.355,1.302,0.202,0.311,1.349,3.688,0.279,0.326c0.093,0.588,0.279,1.152,0.557,1.689l0.574,2.325,0.419,3.27c-0.186,0.114-0.279,0.543-0.279,1.287l-0.217,0.31c-0.186,0-0.445,0.217-0.775,0.651l-1.271,0.65c-0.279,0.093-0.491,0.093-0.636,0l-0.061-0.48-1.194-0.325-1.271-0.652c-0.423-0.154-1.101-0.102-2.03,0.156h-1.411l-2.123-0.558-0.062,0.093-3.177-0.249c-0.558-0.102-1.24-0.102-2.047,0-0.134-0.102-0.18-0.34-0.138-0.712l0.077-0.249,0.697-0.387c0.238-0.165,0.827-0.305,1.767-0.418l0.558-0.232c0.517-0.104,0.966-0.104,1.348,0,0.373,0.216,1.282,0.403,2.728,0.557,1.55,0.217,2.888,0.217,4.014,0l0.636-0.233h0.573l0.497,0.558,0.619,0.155c0.197,0,0.269-0.397,0.218-1.193l-0.699-4.65c-0.134-1.023-0.929-2.681-2.386-4.975l-1.147-1.363-2.03-2-1.209-0.806c-0.464-0.31-1.566-0.418-3.301-0.325-1.271,0.113-2.418,0.49-3.441,1.131-1.653,1.333-2.713,2.562-3.178,3.689l-0.852,3.053-0.341,2.635-0.14,2.402,0.14,1.689,0.837,2.807c0.516,1.229,1.317,2.562,2.403,3.998l2.882,3.131c0.61,0.526,1.782,1.27,3.519,2.232l1.611,0.418,0.078,0.388-0.481,0.496v0.294l0.636,0.325c0.785,0.062,1.25,0.202,1.395,0.419l1.968,0.139,0.713-0.232c0.744-0.434,1.193-0.75,1.349-0.945l0.479-2.821,0.358-0.31c0.041-0.589,0.18-0.941,0.417-1.054l0.698-0.062,1.21,0.387,0.201,0.233-0.356,1.689c0.196,1.075,0.268,1.959,0.217,2.651-0.094,0.216-0.279,0.294-0.558,0.232l-0.574,0.496-1.193-0.093c-1.22,0.32-1.856,0.428-1.907,0.325l-0.636,0.248c-0.256,0.013-0.495,0.018-0.716,0.018-0.708,0-1.238-0.063-1.593-0.188" fill="url(#linearGradient3361)"/></g></g></g></g></g><g id="g3369"><g id="g3371" clip-path="url(#clipPath3373)"><g id="g3377"><g id="g3379"><g id="g3381" clip-path="url(#clipPath3383)"><path id="path3393" d="m85.219,538.01-0.992-0.496-1.317-0.078c-0.714-0.114-1.21-0.309-1.488-0.588l-0.822-0.156-1.41-0.992-0.326-0.077-2.635-1.906-2.805-3.131-1.813-2.712c-1.374-2.367-2.201-4.65-2.48-6.852-0.104-1.424,0.418-2.608,1.566-3.548,0.609-0.331,1.327-0.44,2.154-0.325,1.095,0.217,1.751,0.547,1.969,0.991l1.735,2.712,0.822,0.915,1.487,2.882,0.496,0.42,0.652,0.155,0.418-0.155c0.114-0.115,0.005-1.075-0.325-2.884l-0.093-4.045c0.061-1.818,0.588-2.646,1.58-2.479,0.6,0,0.982,0.195,1.147,0.588l-0.078,0.976,0.404,1.489,1.24,0.992,1.317,2.96,0.418,2.062-0.325-0.155-0.743-1.163-1.24-0.496c-0.217-0.051-0.631-0.765-1.241-2.139-0.052-0.165-0.19-0.223-0.418-0.17l-0.078,0.341,0.17,2.387,0.574,3.301,1.146,3.131,0.59,1.069,0.744,2.138,1.069,1.659,0.078,0.326c0.279,0.547,0.667,0.986,1.163,1.317v0.248l-0.496,0.248v0.325c0.217,0.611,0.542,1.106,0.976,1.488v0.248c-0.269,0.496-0.899,0.744-1.891,0.744-0.331-0.217-0.63-0.738-0.899-1.565m-13.36-18.878c-0.331,1.209-0.44,1.865-0.326,1.969,0.652,3.027,1.612,5.502,2.884,7.424,1.094,1.704,2.055,2.944,2.882,3.719l2.061,1.72,1.814,1.163c0.713,0.331,1.317,0.439,1.813,0.326l0.078-0.419-1.473-2.712-1.736-3.952-1.239-1.985c-0.496-0.826-0.718-1.539-0.667-2.138l-0.481-0.992c-0.496-0.827-1.544-2.175-3.145-4.045-0.652-0.713-1.199-1.07-1.644-1.07l-0.821,0.992z" fill="url(#linearGradient3387)"/></g></g></g></g></g><g id="g3395"><g id="g3397" clip-path="url(#clipPath3399)"><g id="g3403"><g id="g3405"><g id="g3407" clip-path="url(#clipPath3409)"><path id="path3419" d="m94.727,555.54c-0.071-0.004-0.15-0.02-0.24-0.047,0.053-0.196-0.16-0.382-0.635-0.559l-0.062-0.945-0.402-1.255,0.061-1.038-0.341-1.473v-0.465l-0.372-0.573v-0.806l-0.264-0.744,0.062-1.488-0.403-2.155v-0.805l-0.341-1.861-0.851-5.517c-0.042-0.248-0.151-0.476-0.326-0.682-0.093-0.238-0.093-0.682,0-1.333l-0.372-3.037-0.279-1.116-0.063-1.442-0.263-1.612,0.063-0.217-0.264-1.782c-0.145-1.551-0.17-2.398-0.078-2.542l-0.139-0.822c0.041-1.126,0.247-1.864,0.619-2.216,0-0.661,0.088-1.105,0.264-1.333,0.248-0.661,0.853-0.914,1.814-0.759,0.744,0.186,1.302,0.552,1.673,1.1l0.062,0.217,0.636,0.775,1.116,1.999,0.201,0.682,0.357,0.511v0.233l0.899,1.69,0.605,1.642,0.712,0.822,0.512,1.116v0.434l-0.249,0.372-0.526-0.124-0.652-1.147-0.681-2.077-2.155-4.076-0.635-0.65-1.178-1.938h-0.481v0.589l-0.216,0.883,0.139,0.527-0.139,2.232,0.139,2c0.279,0.929,0.372,1.446,0.279,1.549,0,0.403,0.093,0.697,0.279,0.883l-0.14,0.899-0.061,2.402c0,0.6,0.067,0.9,0.201,0.9v0.806l0.201,1.565,0.217,0.822v0.883c0.104,0.145,0.176,0.687,0.217,1.628l0.202,0.96v0.744l0.139,0.466,0.062,1.549,0.915,1.999c0.083,0.807,0.083,1.406,0,1.799,0.134,0.196,0.248,1.063,0.341,2.603l0.434,1.039,0.062,0.961,0.558,1.178,0.465,0.744c0.144,0.196,0.196,0.464,0.155,0.806l0.139,0.232-0.201,1.706,0.124,0.542c-0.041,0.134-0.543,0.35-1.504,0.65,0,0.318-0.116,0.483-0.348,0.497h-0.063z" fill="url(#linearGradient3413)"/></g></g></g></g></g><g id="g3421"><g id="g3423" clip-path="url(#clipPath3425)"><g id="g3429"><g id="g3431"><g id="g3433" clip-path="url(#clipPath3435)"><path id="path3445" d="m104.69,540.46-0.836-0.62c-0.517-0.434-0.936-0.936-1.255-1.503l-0.76-1.721-0.496-1.813-0.341-0.621c-0.186-0.309-0.258-0.769-0.217-1.379l-0.341-1.829c-0.372-0.403-0.837-0.568-1.395-0.496l-0.279-0.232h-0.356l-0.202-0.186-0.899-0.109-1.674-0.387-0.496-0.233-0.76-0.123v-0.295c0.786-0.072,1.297,0.01,1.535,0.248l1.457,0.294,1.395-0.124c0.279,0.486,0.651,0.651,1.116,0.496l0.341-0.263-0.062-3.1c-0.052-0.754,0.181-2.164,0.697-4.231,0.465-1.581,1.297-3.002,2.496-4.263l0.915-0.744,1.316-0.587c0.6-0.156,1.204-0.213,1.814-0.172,0.093-0.103,0.465,0.031,1.116,0.404l0.759,0.805,0.775,1.394,0.481,1.334,0.201,1.023c-0.506-1.457-1.198-2.749-2.077-3.875-0.371-0.485-1.022-0.713-1.952-0.681-0.559,0.123-1.21,0.454-1.954,0.992l-1.115,1.27-0.976,1.457-0.683,1.814c0.093,0.051,0,0.418-0.279,1.1-0.237,2.025-0.356,3.544-0.356,4.556-0.093,0.321,0,0.952,0.279,1.891l1.177,1.101,0.497,0.046c1.622,0.651,2.506,1.055,2.65,1.21l0.76,0.309c0.464,0.455,0.836,0.718,1.115,0.79l0.698,0.605c0.186,0.114,0.279,0.295,0.279,0.543h0.139l0.481,1.163v0.666c-0.042,1.374-0.925,2.675-2.651,3.906l-0.139,0.403c-0.455,0.216-0.915,0.325-1.379,0.325l-0.559-0.558zm-2.091-8.757-0.078,0.247,0.14,0.249,0.216,1.27c0.135,0.568,0.646,1.54,1.534,2.915,1.344,1.333,2.316,2.019,2.914,2.062,0.466-0.569,0.724-1.272,0.775-2.109-0.144-0.734-0.449-1.384-0.914-1.953-1.478-1.26-2.707-2.03-3.688-2.31l-0.28-0.247c-0.1-0.094-0.242-0.14-0.424-0.14-0.061,0-0.126,0.006-0.195,0.016" fill="url(#linearGradient3439)"/></g></g></g></g></g><g id="g3447"><g id="g3449" clip-path="url(#clipPath3451)"><g id="g3455"><g id="g3457"><g id="g3459" clip-path="url(#clipPath3461)"><path id="path3471" d="m117.56,540.01-0.542-0.713-0.976-0.807-0.264-0.712c-0.186-0.062-0.574-0.6-1.162-1.612-0.238-1.065-0.326-1.747-0.264-2.047l-0.186-0.526c0-0.775,0.088-1.224,0.263-1.349l0.187-1.239,1.069-2.139-1.612-1.612-0.264-0.094-2.308-2.402-1.613-2.046c-0.475-0.661-0.832-1.673-1.069-3.037-0.114-0.652,0.45-1.421,1.689-2.309h0.635l1.07-0.358,2.929-0.185c1.726,0.175,2.945,0.594,3.659,1.255l0.991,0.263,1.147,1.24,0.543,1.163,0.263,1.689-0.357,2.061-0.264,0.357-0.619,2.047-1.425,2.587v0.62l0.526,0.806,2.139,1.519,1.07,0.45c0.413,0.588,0.919,1.064,1.519,1.426l1.069,0.17,1.255-0.449,0.558,3.626-2.79-1.844-1.968-1.69-0.976-1.162c-1.84-1.188-2.971-1.664-3.395-1.425-0.889,1.311-1.033,2.712-0.434,4.2l1.07,1.503,0.17,0.635,1.612,1.953c0.114-0.062,0.589,0.238,1.426,0.899l1.24,1.07v0.62l-0.17,0.186-1.783,0.356c-0.3-0.062-1.518-1.044-3.658-2.944m-6.153-21.762-0.713,0.543c-0.3,0.238-0.449,0.951-0.449,2.139l1.256,2.495,1.782,2.14c0.351,0.299,0.707,0.712,1.069,1.239l1.333,1.163,0.449,0.092,0.713-1.161,0.45-0.357,0.527-1.07,0.543-0.45c0.113,0,0.32-0.593,0.619-1.782v-2.138c-0.413-1.065-0.92-2.015-1.518-2.853l-0.807-0.263c-0.527-0.238-1.178-0.356-1.953-0.356l-1.612-0.093c-0.113,0.175-0.676,0.413-1.689,0.712" fill="url(#linearGradient3465)"/></g></g></g></g></g><g id="g3473"><g id="g3475" clip-path="url(#clipPath3477)"><g id="g3481"><g id="g3483"><g id="g3485" clip-path="url(#clipPath3487)"><path id="path3497" d="m135.57,554.98c-0.248-0.227-0.599-0.362-1.054-0.402l-0.759,0.062-0.171-0.141-0.992-3.75-0.17-0.294c-0.382-3.029-0.888-5.152-1.519-6.37v-0.481l-0.481-1.642c-0.362-2.212-0.873-4.681-1.534-7.409-0.331-3.286-0.455-5.229-0.372-5.828l-0.356-0.821v-2.232c0.092-1.611,0.371-3.41,0.836-5.394,0.186-0.951,0.636-1.721,1.349-2.31,1.002-0.443,1.928-0.701,2.774-0.774l1.473,0.511,0.31,0.186-0.078,1.023c0.123,0.909,0.341,1.364,0.651,1.364l0.093,0.388,0.295,0.061-0.187-1.209,0.854,1.101c0.443,0.95,0.722,1.87,0.836,2.758l0.294,0.558,0.109,0.792,0.558,1.084,0.217,0.791,0.667,1.394v0.512l0.666,1.767,0.279,1.503,0.573,1.597-0.108,0.403,0.387,1.642c0.145,1.126,0.145,1.71,0,1.752l0.217,1.224-0.326,0.202-1.612,0.139-0.293,0.124c-0.445,0.145-0.853,0.015-1.225-0.387l-1.55-0.559-1.023-0.666-1.069-0.278-1.612-1.349-0.388-0.558c-0.186-0.176-0.34-0.232-0.465-0.171-0.207,0.207-0.145,0.946,0.186,2.217,0.382,0.62,0.516,0.982,0.404,1.085,0.112,0.681,0.355,1.177,0.728,1.488l0.294,1.085,0.977,2.139c-0.134,0.784-0.134,1.622,0,2.511l0.341,1.146,0.511,0.899,0.465,3.224,1.132,1.876,0.79,2.2c-0.161,0.226-0.472,0.34-0.933,0.34-0.275,0-0.605-0.041-0.989-0.123m-3.596-36.128-0.464,0.48-0.807,2.015,0,0.59,0.279,0.418-0.077,0.325c0.403,0.32,0.403,0.976,0,1.968l0.077,0.079-0.17,1.549,0.17,1.364,0.187,0.356c-0.125,0.548-0.125,0.992,0,1.333l1.161,2.914-0.076,0.883,1.332,0.171c0.362,0.207,0.584,0.481,0.667,0.821l1.425,1.039h0.698l1.395-0.48c-0.124-1.127-0.124-1.783,0-1.969l-0.279-2.077,0.093-0.433c-1.033-2.873-1.927-4.852-2.681-5.937-1.086-2.583-1.726-4.345-1.922-5.285-0.052-0.216-0.238-0.325-0.558-0.325l-0.45,0.201z" fill="url(#linearGradient3491)"/></g></g></g></g></g><g id="g3499"><g id="g3501" clip-path="url(#clipPath3503)"><g id="g3507"><g id="g3509"><g id="g3511" clip-path="url(#clipPath3513)"><path id="path3523" d="m156.66,541.5-1.085-3.177-2.511-5.812-0.264-1.472-1.612-3.348-2.139-2.822-2.697-4.199c-0.651-0.899-1.064-1.318-1.239-1.256,0.061,0.361,0,0.635-0.186,0.821,0.123,0.599,0.123,1.08,0,1.442l0.356,2.991,0.264,1.023v0.62l0.542,1.906,0.092,1.101,0.357,1.085v0.821l0.806,3.363,1.163,3.829,0.186,0.17,0.093,0.652c-0.187,0.289-0.879,0.434-2.077,0.434l-0.434-0.264-1.969-0.357c-0.361-0.186-0.604-0.49-0.729-0.914l0.466-0.093,2.046,0.279,0.092-0.559-1.875-7.996-1.426-7.998c-0.123-0.486-0.123-0.821,0-1.007l-0.092-2.898c0.175-0.796,0.563-1.101,1.162-0.915l0.356-0.279c1.075,0,1.819,0.248,2.232,0.743l0.279,1.086,1.503,3.363,3.147,5.27c0.713,0.609,1.188,0.826,1.425,0.65l0.094-0.092-0.094-4.728c0-0.671,0.213-1.58,0.637-2.728,0.536-1.219,1.193-2.159,1.968-2.821l1.069-0.557,2.604-0.093c0.29-0.062,0.946,0.124,1.968,0.558l1.333,1.271c1.726,2.304,2.475,3.636,2.248,3.998l-0.28,0.279-0.263-0.109-1.798-2.619-1.425-1.286c-1.375-0.723-2.625-0.961-3.751-0.713-0.249-0.062-0.817,0.935-1.705,2.991-0.424,2.119-0.579,3.757-0.465,4.914l0.543,3.813,0.635,1.999,0.186,1.27,0.34,0.822,0.466,2.17c0.95,2.738,1.545,4.226,1.783,4.464v0.464c-0.509,0.429-1.012,0.642-1.512,0.642-0.272,0-0.544-0.064-0.813-0.192" fill="url(#linearGradient3517)"/></g></g></g></g></g><g id="g3525"><g id="g3527" clip-path="url(#clipPath3529)"><g id="g3533"><g id="g3535"><g id="g3537" clip-path="url(#clipPath3539)"><path id="path3549" d="m173.17,544.29-0.79-2.03-2.433-2.93-0.45-0.263c-0.289,0.351-0.258,0.646,0.093,0.884v0.527c-0.403,0.185-0.78,0.604-1.131,1.254l-1.845,0.172-0.527-0.358c0.063-0.939,0.006-1.528-0.17-1.766l-0.527-4.867-1.736-10.896-0.79-3.363-0.512-3.363c0.289-0.538,0.956-0.507,1.999,0.093l1.132,7.16c0.754,3.72,1.276,5.905,1.566,6.556,0.939,2.718,2.196,5.286,3.765,7.704,0.465,0.651,0.817,0.914,1.055,0.79l0.325-0.435,0.79-0.541v-1.147l0.186-0.264,0.775-0.186,1.225,0.356,0.356,2.31,0.263,0.62c0,0.651,0.115,1.271,0.341,1.86v1.41c0,0.589-0.49,0.945-1.472,1.07-0.878,0-1.374-0.119-1.488-0.357" fill="url(#linearGradient3543)"/></g></g></g></g></g><g id="g3551"><g id="g3553" clip-path="url(#clipPath3555)"><g id="g3559"><g id="g3561"><g id="g3563" clip-path="url(#clipPath3565)"><path id="path3575" d="m204.93,543.03-2.31-0.527-0.062,0.109c-1.725-0.475-2.779-0.822-3.162-1.039-6.292,0.29-10.565,0.315-12.817,0.078v0.109l-1.256-0.187-0.387,0.078-2.511-0.17c-0.92-0.404-1.493-0.549-1.72-0.434l-0.326-0.249-1.441-0.077c-0.486-0.062-0.687-0.377-0.604-0.945l0.526-0.961-0.201-0.496-1.581-2.402-0.465-1.024-0.589-2.418-0.139-1.952,0.139-1.193,0.589-1.814,0.79-1.101c0.754-0.64,1.483-1.099,2.185-1.379l0.062-0.249-2.293-1.905-0.744-0.93c-0.341-0.92-0.491-1.839-0.449-2.759l0.263-0.93,0.574-1.131c0-0.166,0.599-0.646,1.798-1.442l0.789-0.356,2.248-0.249,3.89,0.171,3.115-0.248,0.977-0.248c0.661-0.072,1.674-0.589,3.038-1.549l1.116-1.457,0.605-1.132,0.264-1.875-0.326-1.457-0.682-1.38-0.575-0.759-1.472-1.379-1.364-0.775-0.216-0.341-1.767-0.76-0.202-0.279-2.975-1.441h-0.326l-0.589-0.435-0.666-0.077-1.845-0.698h-0.387l-0.869-0.433-3.037-0.248-0.977-0.341-0.464-0.435c-0.187-0.113-0.367-0.113-0.543,0-1.271-0.113-2.191-0.315-2.759-0.604-0.31,0.187-1.477,0.046-3.502-0.418l-0.326-0.186-1.968-0.14c-0.889-0.072-1.333-0.247-1.333-0.526l0.34-0.078,0.264,0.17c0.176-0.186,0.439-0.16,0.791,0.078,0.433-0.052,1.725,0.005,3.874,0.17l0.062-0.093c0.796,0,1.214,0.093,1.256,0.279l3.053,0.077,1.179,0.528,0.588-0.109c2.149,0.455,3.606,0.884,4.371,1.287l1.038,0.17,0.402,0.279,0.714,0.077c2.129,0.734,3.167,1.215,3.115,1.442,0.124-0.114,0.678,0.089,1.659,0.604l0.186,0.249h0.326l1.456,0.961,1.333,0.604,0.186,0.248h0.201c0.796,0.734,1.302,1.101,1.519,1.101,0.217,0.402,0.501,0.696,0.852,0.883l0.605,0.852,0.651,1.798,0.077,1.953c0.043,0.29-0.185,1.007-0.681,2.155l-0.853,1.363-1.441,1.473-1.256,0.682-0.403,0.341-2.185,0.76-3.627,0.34-4.091-0.062c-1.716,0.165-2.816,0.615-3.302,1.349-0.258,0.754-0.32,1.389-0.186,1.906,0.176,0.62,0.61,1.354,1.302,2.201,0.187-0.052,0.46,0.206,0.821,0.774l0.791,0.435,0.186,0.34c0.661,0.125,1.235,0.445,1.721,0.961l0.991,0.249c0.083,0.165,0.496,0.423,1.241,0.775,0.134,0,0.247,0.201,0.341,0.605,1.446,0.898,2.17,1.467,2.17,1.704l0.464,0.248,1.395,1.891,0.574,2.076,0.279,2.559-0.388,1.704-0.93,1.968-1.472,1.566-0.047,0.248,0.325,0.418,1.519,0.434c0.837,0,1.52,0.083,2.046,0.248,1.188,0.114,1.917,0.114,2.185,0,1.934,0.186,2.987,0.222,3.163,0.109l0.325-0.605,1.317-0.604,1.395-0.357,1.985,0.186,0.651,0.171c1.063,0,1.678-0.083,1.844-0.248,0.889,0.092,1.751,0.092,2.588,0l0.977-0.357c0.217,0.455,0.392,0.682,0.526,0.682,0.228-0.165,0.537-0.227,0.931-0.186l0.061,0.527-0.449,0.791-0.202,0.775-0.867,1.1c-0.176,0.238-0.439,0.357-0.791,0.357l-1.782-0.187zm-20.645-4.463c0.785,0.806,1.224,1.126,1.317,0.961l0.652-0.527,0.403-0.682,0.573-0.528c0.187-0.164,0.521-0.873,1.007-2.123,0.166-1.323,0.232-2.149,0.202-2.48l-0.527-1.905-1.07-1.783-0.867-0.884-2.155-1.627c-0.837-0.382-1.674-0.868-2.511-1.457l-0.651-0.17c-0.765,0.186-1.493,0.645-2.185,1.378l-0.605,1.024c-0.268,1.044-0.356,1.705-0.263,1.983,0.434,2.573,0.94,4.087,1.519,4.543l0.526,1.193,0.326,0.185,1.395,1.705c0.486,0.392,0.812,0.532,0.977,0.418l1.937,0.776zm-1.798-24.411-0.248-0.357-0.744-0.062-0.186,0.325-0.325-0.325-1.581-0.109,0.047,0.434c-0.176,0-0.285-0.108-0.326-0.325l-0.651-0.186v0.077c-0.362-0.164-0.718-0.191-1.07-0.077l-0.449-0.278-1.782-0.249c-0.714-0.113-1.07-0.03-1.07,0.249l-0.589-0.062-0.248,0.17,0.047,0.356c-0.527,0.042-1.318-0.113-2.372-0.464l-0.309,0.108c-1.188-0.114-2.268-0.346-3.24-0.698-0.62,0.062-1.586-0.083-2.898-0.434-4.144-1.25-6.871-2.277-8.184-3.084h-0.402c-1.097-0.733-1.907-1.131-2.434-1.193-0.579-0.29-1.679-1.142-3.301-2.558l-0.93-1.286-0.388-0.775c0.083-0.113,0.01-0.434-0.217-0.961v-0.666l0.543-1.457c0.093-0.238,0.423-0.554,0.992-0.946,1.983-1.023,3.812-1.571,5.486-1.643-0.145,0.124-1.074,0.47-2.79,1.039l-2.51,1.193-0.651,1.038-0.063,0.946,0.125,0.171,0.077,0.589,0.976,1.549,0.791,0.419,0.279,0.527c0.124,0,0.361,0.227,0.712,0.681l0.543,0.078,0.791,0.884h0.325l1.907,1.178c0.31,0.113,0.557,0.113,0.744,0l0.371,0.341,1.535,0.526,0.465,0.326,2.433,0.698,0.264,0.263,1.72,0.418,0.264,0.248c1.281,0.125,2.138,0.362,2.572,0.713,0.62-0.124,1.039-0.124,1.256,0l0.263-0.185,0.063-0.249c-0.176,0-0.264-0.118-0.264-0.356l3.689,0.79,0.062-0.109,0.511,0.249,2.123,0.527c0.351-0.166,0.791-0.103,1.318,0.186,1.229,0,1.938,0.082,2.123,0.248l1.039-0.078,0.604,0.248c1.447-0.166,2.527-0.196,3.24-0.093l0.991-0.155,0.187,0.078c0.485,0,0.775-0.083,0.867-0.248,0.569,0,1.312-0.119,2.232-0.357l0.388-0.247,0.14,0.077c0.361,0,0.604-0.109,0.728-0.326,0.227,0.042,0.537-0.103,0.929-0.434l0.791-0.171,0.853,0.326,0.138,0.419-1.068,1.487c-0.124,0.217-0.605,0.217-1.442,0l-2.433,0.419h-0.93l-0.465,0.186-0.325-0.109-1.194,0.109-0.063,0.14,0.203,0.356-0.605-0.077zm-4.231-0.094-0.046-0.185,0.263,0,0,0.185-0.217,0z" fill="url(#linearGradient3569)"/></g></g></g></g></g><g id="g3577"><g id="g3579" clip-path="url(#clipPath3581)"><g id="g3585"><g id="g3587"><g id="g3589" clip-path="url(#clipPath3591)"><path id="path3601" d="m53.245,504.62-3.472-2.324-0.728-0.699-0.869-0.541c-1.291-1.54-1.912-2.465-1.859-2.775l-0.667-1.007-1.302-3.332-0.078-0.465-0.279-0.558c0.104-0.042,0-0.496-0.309-1.364v-0.714c-0.176-0.516-0.336-1.317-0.481-2.402l-0.062-2.65c0-2.108,0.574-4.123,1.721-6.045,0.381-0.506,1.053-1.198,2.015-2.077l1.829-1.007c0.857-0.475,2.417-0.713,4.679-0.713,1.84,0.166,3.654,0.615,5.441,1.349,1.199,0.516,2.283,1.239,3.255,2.169l0.202,0.76h-0.14c-0.434-0.413-1.612-0.899-3.534-1.457-0.3-0.052-0.398-0.238-0.294-0.558l0.728,0.093c0,0.093,0.165,0.171,0.496,0.232l0.093-0.232-0.17-0.17c-0.197,0.113-0.749,0.009-1.658-0.31l-1.736-0.156c-1.107,0.311-1.923,0.394-2.449,0.249-0.3,0.258-0.688,0.387-1.163,0.387l-0.294,0.295-1.085,0.31-1.147,0.774-1.162,1.55-0.357,0.17-0.45,0.605-0.728,1.86c-0.29,0.724-0.378,1.241-0.264,1.55l-0.371,1.085-0.217,2.03c-0.042,2.831,0.656,5.745,2.091,8.742l2.248,2.867,1.225,1.163,1.023,0.681,2.728,1.395,0.588,0.078,0.589,0.31c0.672,0,1.059,0.083,1.163,0.248h2.077l1.379-0.387,0.791-0.481c0.64-0.816,0.96-1.302,0.96-1.457l0.357-0.387,0.433-0.17,0.063,0.076,0.512-0.076c0.816,0.154,1.348,0.387,1.595,0.697,0.332,0.516,0.569,1.266,0.714,2.247-0.435,1.085-0.775,1.653-1.023,1.704-0.227,0.207-0.728,0.207-1.503,0-0.28,0-0.543,0.105-0.791,0.311-0.972,0.269-2.325,0.403-4.061,0.403-2.025-0.31-4.123-0.935-6.292-1.876m-0.931-27.96-1.379,0.171c-1.013,0.402-1.643,0.712-1.89,0.929-0.289,0.207-0.383,0.388-0.279,0.543l0.728,0.078c1.487-0.569,3.172-1.085,5.052-1.55l0.062-0.171-0.433-0.139c-1.003,0.092-1.53,0.092-1.582,0l-0.279,0.139z" fill="url(#linearGradient3595)"/></g></g></g></g></g><g id="g3603"><g id="g3605" clip-path="url(#clipPath3607)"><g id="g3611"><g id="g3613"><g id="g3615" clip-path="url(#clipPath3617)"><path id="path3627" d="m70.51,500.08-0.821-0.852-1.348-2.279-0.76-1.751-0.232-0.915-0.512-0.93-0.093-0.558-0.836-2.107c-0.621-2.573-0.987-4.386-1.102-5.441l-0.061-2.572c-0.166-0.548,0.077-1.932,0.728-4.154,0.579-1.219,1.478-2.071,2.697-2.557,0.496-0.187,1.11-0.249,1.845-0.187,0.888-0.258,1.864,0.321,2.928,1.736l1.427,2.512,0.418,0.991,1.426,4.696c0,0.187,0.305,0.347,0.915,0.481l0.589,3.022,0.341,0.822c0.227,1.044,0.309,1.937,0.247,2.681l0.357,1.844-0.264,1.55-0.263,0.652-0.93,0.728-0.233,0.558-1.007,0.821-2.603,0.279-0.822,0.558-0.945,0.372h-1.086zm-0.914-23.481c-0.786,0.373-1.534,1.571-2.247,3.596l-0.264,2.48v1.379c0.33,2.16,1.199,5.141,2.604,8.943l1.163,1.922,1.007,0.744,0.418,0.728c0.445,0.311,0.863,0.248,1.256-0.185l1.084-0.187,0.42,0.372c0.949-1.043,1.234-3.007,0.852-5.89l0.077-0.185c-0.175-1.23-0.428-2.46-0.759-3.689,0-0.424,0.113-0.703,0.341-0.837v-0.449l-1.178-3.317c-0.558-1.334-1.344-2.656-2.356-3.968l-1.504-1.178c-0.355-0.198-0.621-0.298-0.798-0.298-0.044,0-0.083,0.006-0.116,0.019" fill="url(#linearGradient3621)"/></g></g></g></g></g><g id="g3629"><g id="g3631" clip-path="url(#clipPath3633)"><g id="g3637"><g id="g3639"><g id="g3641" clip-path="url(#clipPath3643)"><path id="path3653" d="m97.076,501.11-0.419-1.86c-1.116-2.645-2.345-5.135-3.689-7.47l-1.859-4.541-0.17-0.078-0.079,0.744,0.512,2.944,0.574,2.046,0.108,0.729,0.403,1.101,0.186,1.022c0.093,0.858,0.31,1.601,0.651,2.232l0.077,0.899-0.248,0.558-1.255,0.372c-0.331,0-0.527-0.087-0.589-0.264,0-0.557-0.082-0.991-0.248-1.301l-4.618-7.115-2.681-4.634c-0.28-0.485-0.539-0.697-0.776-0.635l-0.155,0.186,0.667,2.698,0.666,4.617,0.186,0.342v0.573l0.76,2.48,0.062,1.286,0.434,1.395-0.187,0.372c-0.496,0.362-0.986,0.579-1.472,0.651-0.3,0.062-0.475-0.212-0.528-0.821l-1.254-1.768-0.42-0.836c-0.225-0.434-0.65-0.837-1.269-1.209l-2.325-0.728,2.898-0.187,0.588-0.185,0.108-1.193-0.17-3.798-0.17-0.837v-1.658l-0.263-1.845-1.503-8.122c-0.228-0.671-0.522-1.224-0.884-1.658v-0.372c1.146-0.455,1.865-0.423,2.154,0.093l0.233,2.123,0.929,2.775c0.341,1.105,1.127,2.95,2.357,5.533l2.79,4.634,0.65,1.565,1.007,1.567,0.264,0.17c0.041-1.467,0.181-2.258,0.419-2.372v-1.519l-0.683-3.317-0.573-4.882-0.093-3.952c0.062-0.62,0.584-0.878,1.566-0.775l0.449,0.387-0.17,1.302c0.061,1.044,0.614,3.441,1.658,7.192l1.937,5.083,2.015,4.433,0.186,0.094,0.171-0.279,0.077-1.659,0.171-0.387,0.588,0.093,0.094-0.713-0.356-4.169,0.092-0.186-0.341-8.324,0.249-3.332c0-0.413,0.196-0.593,0.588-0.542,0.072-0.176,0.249-0.331,0.528-0.465,0.775,0.309,1.219,0.377,1.333,0.201l0.341,0.357c-0.187,0.299-0.166,0.703,0.061,1.208l0.838,1.659c0.113,0.609,0.459,1.441,1.037,2.496l0.063,2.216-0.419-0.187c-0.166-0.671-0.392-1.316-0.681-1.937l-1.086-1.766-0.589-0.358-0.14,0.202-0.092,1.922,0.588,12.555,0.481,3.161v1.286l0.357,1.753c-0.195,0.651-0.833,0.977-1.915,0.977-0.24,0-0.5-0.016-0.782-0.048" fill="url(#linearGradient3647)"/></g></g></g></g></g><g id="g3655"><g id="g3657" clip-path="url(#clipPath3659)"><g id="g3663"><g id="g3665"><g id="g3667" clip-path="url(#clipPath3669)"><path id="path3679" d="m120.96,501.11-0.418-1.86c-1.116-2.645-2.345-5.135-3.689-7.47l-1.861-4.541-0.17-0.078-0.077,0.744,0.511,2.944,0.574,2.046,0.108,0.729,0.404,1.101,0.186,1.022c0.092,0.858,0.309,1.601,0.651,2.232l0.077,0.899-0.248,0.558-1.256,0.372c-0.33,0-0.526-0.087-0.588-0.264,0-0.557-0.083-0.991-0.249-1.301l-4.618-7.115-2.682-4.634c-0.279-0.485-0.537-0.697-0.775-0.635l-0.154,0.186,0.666,2.698,0.666,4.617,0.186,0.342v0.573l0.759,2.48,0.063,1.286,0.433,1.395-0.185,0.372c-0.496,0.362-0.987,0.579-1.472,0.651-0.3,0.062-0.476-0.212-0.527-0.821l-1.256-1.768-0.419-0.836c-0.227-0.434-0.651-0.837-1.27-1.209l-2.325-0.728,2.898-0.187,0.589-0.185,0.108-1.193-0.17-3.798-0.171-0.837v-1.658l-0.263-1.845-1.504-8.122c-0.226-0.671-0.522-1.224-0.883-1.658v-0.372c1.147-0.455,1.865-0.423,2.154,0.093l0.233,2.123,0.93,2.775c0.341,1.105,1.127,2.95,2.356,5.533l2.79,4.634,0.651,1.565,1.008,1.567,0.263,0.17c0.041-1.467,0.181-2.258,0.418-2.372v-1.519l-0.681-3.317-0.574-4.882-0.093-3.952c0.062-0.62,0.583-0.878,1.565-0.775l0.45,0.387-0.171,1.302c0.062,1.044,0.615,3.441,1.659,7.192l1.936,5.083,2.016,4.433,0.186,0.094,0.17-0.279,0.077-1.659,0.171-0.387,0.589,0.093,0.094-0.713-0.358-4.169,0.094-0.186-0.341-8.324,0.247-3.332c0-0.413,0.197-0.593,0.59-0.542,0.072-0.176,0.247-0.331,0.526-0.465,0.775,0.309,1.22,0.377,1.333,0.201l0.341,0.357c-0.186,0.299-0.165,0.703,0.062,1.208l0.837,1.659c0.114,0.609,0.46,1.441,1.039,2.496l0.062,2.216-0.418-0.187c-0.166-0.671-0.393-1.316-0.683-1.937l-1.085-1.766-0.589-0.358-0.139,0.202-0.093,1.922,0.589,12.555,0.48,3.161v1.286l0.357,1.753c-0.195,0.651-0.833,0.977-1.915,0.977-0.239,0-0.499-0.016-0.782-0.048" fill="url(#linearGradient3673)"/></g></g></g></g></g><g id="g3681"><g id="g3683" clip-path="url(#clipPath3685)"><g id="g3689"><g id="g3691"><g id="g3693" clip-path="url(#clipPath3695)"><path id="path3705" d="m141.02,499.88-1.084-3.177-2.511-5.813-0.264-1.472-1.612-3.348-2.139-2.822-2.696-4.199c-0.651-0.899-1.064-1.318-1.241-1.255,0.063,0.361,0,0.635-0.185,0.821,0.123,0.599,0.123,1.079,0,1.441l0.356,2.992,0.263,1.023v0.619l0.543,1.907,0.093,1.1,0.356,1.085v0.822l0.806,3.363,1.162,3.828,0.187,0.171,0.093,0.651c-0.186,0.289-0.878,0.434-2.077,0.434l-0.434-0.264-1.968-0.356c-0.362-0.186-0.605-0.491-0.729-0.915l0.465-0.093,2.046,0.28,0.093-0.559-1.875-7.997-1.427-7.997c-0.124-0.486-0.124-0.822,0-1.007l-0.092-2.899c0.175-0.796,0.563-1.101,1.163-0.915l0.356-0.279c1.074,0,1.818,0.248,2.231,0.744l0.279,1.085,1.504,3.363,3.146,5.27c0.713,0.61,1.188,0.827,1.426,0.651l0.093-0.093-0.093-4.727c0-0.672,0.212-1.581,0.635-2.728,0.538-1.219,1.194-2.16,1.969-2.821l1.07-0.558,2.603-0.093c0.289-0.061,0.945,0.124,1.969,0.558l1.333,1.272c1.725,2.303,2.474,3.637,2.247,3.998l-0.279,0.279-0.264-0.108-1.797-2.62-1.427-1.287c-1.373-0.723-2.624-0.961-3.75-0.712-0.248-0.062-0.816,0.935-1.705,2.99-0.423,2.119-0.579,3.757-0.465,4.914l0.543,3.813,0.635,2,0.186,1.27,0.341,0.821,0.465,2.17c0.95,2.739,1.544,4.226,1.782,4.464v0.465c-0.507,0.428-1.012,0.642-1.51,0.642-0.273,0-0.545-0.065-0.815-0.192" fill="url(#linearGradient3699)"/></g></g></g></g></g><g id="g3707"><g id="g3709" clip-path="url(#clipPath3711)"><g id="g3715"><g id="g3717"><g id="g3719" clip-path="url(#clipPath3721)"><path id="path3731" d="m162.4,499.37c-0.113-0.454-0.651-1.549-1.612-3.286l-2.433-2.448-5.89-6.897c-0.392-0.394-0.676-0.564-0.852-0.512l-0.078,0.171,1.256,4.37,0.418,0.852,0.093,0.931,1.008,1.844,0.17,1.519c0.114,0,0.31,0.532,0.59,1.597v0.681c-0.166,0.331-1.034,0.553-2.605,0.667l-0.263-0.078-0.418-0.511-0.419-1.179-1.425-2.185c-0.394-0.62-0.539-1.156-0.435-1.612-0.051-0.165,0.315-0.413,1.101-0.743l-0.419-2.62-0.247-0.496-0.76-3.286-0.512-1.442-0.17-1.084-0.76-2.356-0.247-1.348-0.171-0.263-0.078-0.667c-0.454-1.064-0.65-1.931-0.589-2.604l0.667-0.434,0.588,0.093,0.094-0.093c0.609,0,1.002,0.197,1.178,0.589l0.325,2.2,2.201,4.96,1.349,2.186,1.425,1.519,1.519,2.108c0.217,0.392,0.527,0.532,0.93,0.418l0.914-0.077,0.171-0.171c0.062-0.165-0.217-0.981-0.837-2.448l-0.93-3.705-0.418-2.356-0.093-3.363c0.062-1.735,0.657-3.028,1.782-3.875,0.723-0.443,1.339-0.64,1.845-0.588l1.1,0.17,0.419,0.837,0.418,0.512,1.007,2.184,0.683,1.008,1.348,3.038,1.921,3.534v0.511l-2.355-3.627-2.434-4.386-1.426-1.922c-0.289-0.289-0.542-0.434-0.759-0.434l-0.434,0.341-0.589,1.689c-0.217,2.016-0.217,3.251,0,3.705l-0.078,0.759c0,0.393,0.083,0.672,0.249,0.837v0.512l0.852,3.27v0.512l0.325,0.759v0.419c0.228,0.113,0.316,0.309,0.264,0.588l0.667,1.349v0.511l0.837,1.504v0.433l0.681,1.179,0.589,1.674c0.621,0.899,1.013,1.349,1.179,1.349l0.511,1.348,0.666,0.681,0.078,0.496c-0.336,0.508-0.929,0.762-1.778,0.762-0.274,0-0.575-0.028-0.904-0.08" fill="url(#linearGradient3725)"/></g></g></g></g></g><g id="g3733"><g id="g3735" clip-path="url(#clipPath3737)"><g id="g3741"><g id="g3743"><g id="g3745" clip-path="url(#clipPath3747)"><path id="path3757" d="m172.86,506.24c-0.044,0-0.083-0.005-0.116-0.017-0.341-0.381-0.594-1.152-0.76-2.308l-0.511-1.504-0.992-1.876,0.108-1.007-0.108-0.077,0.186-0.062,0.201,0.295,1.055,0.355c0.444,0.424,0.697,0.755,0.759,0.993l1.27,1.224,0.884,0.373,0.14,0.79c0.041,0.083-0.109,0.32-0.449,0.713l0.154,0.728-0.372,0.697c-0.686,0.455-1.168,0.683-1.447,0.683h-0.002m-3.851-10.23c0.092-0.103,0.092-0.563,0-1.38-0.249-0.475-0.373-0.857-0.373-1.146-0.051-0.248-0.201-0.46-0.449-0.636-0.052-0.723-0.196-1.23-0.434-1.519l-0.186-0.867-0.511-1.504-0.434-1.952-0.248-0.435-0.589-2.232-0.744-3.735-0.202-2.666c0.042-1.343,0.186-2.108,0.435-2.294l0.588,0.077c0-0.34,0.325-0.464,0.977-0.371,0.444,0.579,1.064,1.033,1.859,1.364l0.232,0.294h0.141l1.209,1.286,1.27,1.737,1.271,1.859,0.434,0.946-2.154-2.372-2.62-2.588-1.487-1.007h-0.232c-0.496,0.051-0.569,1.493-0.218,4.323l1.488,5.518,0.232,0.373v0.293l1.566,3.519,1.349,1.519c0.289,0.465,0.387,0.749,0.294,0.853-0.196,0.486-0.274,1.136-0.232,1.953-0.042,0.185-0.362,0.351-0.961,0.496l-0.31,0.294-0.823,0.139-0.138-0.139zm4.773-12.461,0.17-0.063-0.092,0.217-0.078-0.154z" fill="url(#linearGradient3751)"/></g></g></g></g></g><g id="g3759"><g id="g3761" clip-path="url(#clipPath3763)"><g id="g3767"><g id="g3769"><g id="g3771" clip-path="url(#clipPath3773)"><path id="path3783" d="m179.06,500.25c-0.051-0.547-0.299-1.373-0.743-2.479l-0.899-3.906c-0.351-0.455-1.483-0.604-3.394-0.449l-0.156,0.154h-1.642c-0.155-0.309-0.383-0.486-0.682-0.526l-0.078-0.388,0.232-0.294c1.499,0.103,2.3,0.103,2.402,0l0.234-0.155,2.619,0.232,0.155-0.155c-0.145-0.196-0.197-0.469-0.155-0.821l-0.666-3.007,0.077-0.078-0.311-0.837-0.154-1.72-0.295-1.441-0.077-1.426-0.372-2.558-0.154-3.456c0.102-1.405,0.505-2.108,1.207-2.108l2.558,0.976c0.3,0,0.475,0.378,0.528,1.132l0.682,1.813c0.443,0.651,0.666,1.075,0.666,1.272l0.31,0.371,1.193,2.34c0.3,0.6,0.475,1.101,0.527,1.504l0.527,1.054,0.682,3.084,0.372,0.666v0.311c0.403,0.795,0.578,1.297,0.527,1.504l-0.372-0.079-1.131-3.084-1.427-3.239-2.402-4.278c-0.103-0.207-0.305-0.309-0.605-0.309l-0.603,0.309,0.077,1.271-0.156,1.891c0.156,0.599,0.182,0.997,0.079,1.193l0.216,1.055,0.155,3.394,0.449,2.697c-0.051,0.403,0.3,0.682,1.054,0.837,0.951-0.104,2.305-0.104,4.061,0,0.403,0.041,0.682-0.01,0.837-0.155l2.171-0.078c0.506,0,0.883-0.098,1.13-0.294h1.427l0.077,0.527-0.899,0.216-0.294-0.077-0.682,0.232c-1.602,0.105-2.579,0.105-2.93,0-0.206,0.301-1.312,0.475-3.316,0.528-0.145-0.053-0.496,0.124-1.054,0.527l-1.054,0.077c-0.052,0.351,0.098,1.276,0.449,2.774l0.527,1.365c0.052,0.898,0.202,1.621,0.449,2.169-0.307,0.216-0.615,0.323-0.924,0.323-0.343,0-0.685-0.134-1.029-0.401" fill="url(#linearGradient3777)"/></g></g></g></g></g><g id="g3785"><g id="g3787" clip-path="url(#clipPath3789)"><g id="g3793"><g id="g3795"><g id="g3797" clip-path="url(#clipPath3799)"><path id="path3809" d="m197.95,499.05-0.341-0.434-4.742-9.687-0.59-2.619-0.961-2.217-0.248-0.248-0.248,0.326-0.433,6.974c-0.332,2.49-0.641,4.046-0.93,4.665-0.558,0.228-1.127,0.315-1.706,0.264-0.34-0.062-0.454-0.46-0.34-1.193l-0.589-1.706-0.093-0.93-0.156-0.341-0.093-1.348,0.59-0.418c0.175,0.392,0.459,0.646,0.852,0.759l0.341,0.589h0.17l0.357-1.271,0.496-4.076-0.155-5.704c-0.227-0.898-0.341-1.916-0.341-3.053-0.413-0.961-0.564-1.498-0.449-1.612,0.3-0.517,0.924-0.377,1.875,0.419,0.341,0.341,0.542,1.214,0.604,2.619l0.76,3.146,2.217,5.704,0.758,0.93,0.341,0.093,0.496-0.93v-1.612l0.171-0.279v-1.86l-0.171-0.419c-0.217-2.376-0.526-4.53-0.929-6.463-0.734-2.717-1.555-5.093-2.465-7.13-0.506-1.239-1.462-2.907-2.867-5.005l-2.232-2.387c-0.899-0.796-1.777-1.452-2.634-1.968l-1.674-0.683-1.551-0.325h-1.255c-1.189,0.279-2.268,0.615-3.24,1.008l-1.441,1.457-0.666,1.936,0.078,2.31,0.511,1.596v0.791h-0.171l-0.868-2.139c-0.341-1.405-0.454-2.366-0.341-2.882l0.264-1.442c0.114-0.455,0.569-1.111,1.364-1.968,1.012-0.9,2.935-1.323,5.765-1.271,1.985-0.115,4.278,0.769,6.882,2.65l1.969,1.938,1.255,1.627,1.721,2.789c1.064,2.099,1.539,3.173,1.425,3.225l0.434,0.697,0.248,0.93,0.248,0.341,0.434,1.178,1.457,6.307-0.094,0.156,0.264,0.682,0.667,5.363,0.171,0.418,0.17,2.386c0.341,1.468,0.455,2.233,0.341,2.295,0.228,0.671,0.423,1.689,0.589,3.053l0.775,2.899v0.759c-0.223,0.298-0.603,0.448-1.142,0.448-0.263,0-0.565-0.036-0.904-0.107" fill="url(#linearGradient3803)"/></g></g></g></g></g><g id="g3811"><g id="g3813" clip-path="url(#clipPath3815)"><g id="g3819"><g id="g3821"><g id="g3823" clip-path="url(#clipPath3825)"><path id="path3835" d="m53.245,463.01-3.472-2.326-0.728-0.697-0.869-0.542c-1.291-1.54-1.912-2.465-1.859-2.775l-0.667-1.007-1.302-3.333-0.078-0.465-0.279-0.557c0.104-0.042,0-0.496-0.309-1.364v-0.713c-0.176-0.518-0.336-1.318-0.481-2.403l-0.062-2.65c0-2.108,0.574-4.123,1.721-6.044,0.381-0.507,1.053-1.2,2.015-2.078l1.829-1.007c0.857-0.475,2.417-0.712,4.679-0.712,1.84,0.164,3.654,0.613,5.441,1.347,1.199,0.517,2.283,1.24,3.255,2.17l0.202,0.76h-0.14c-0.434-0.414-1.612-0.899-3.534-1.457-0.3-0.052-0.398-0.238-0.294-0.558l0.728,0.093c0,0.093,0.165,0.17,0.496,0.232l0.093-0.232-0.17-0.17c-0.197,0.113-0.749,0.01-1.658-0.311l-1.736-0.155c-1.107,0.31-1.923,0.393-2.449,0.249-0.3,0.257-0.688,0.387-1.163,0.387l-0.294,0.294-1.085,0.311-1.147,0.774-1.162,1.55-0.357,0.17-0.45,0.605-0.728,1.86c-0.29,0.723-0.378,1.241-0.264,1.549l-0.371,1.086-0.217,2.03c-0.042,2.831,0.656,5.745,2.091,8.742l2.248,2.867,1.225,1.162,1.023,0.682,2.728,1.395,0.588,0.078,0.589,0.309c0.672,0,1.059,0.083,1.163,0.249h2.077l1.379-0.387,0.791-0.481c0.64-0.817,0.96-1.302,0.96-1.457l0.357-0.388,0.433-0.17,0.063,0.078,0.512-0.078c0.816,0.155,1.348,0.388,1.595,0.698,0.332,0.516,0.569,1.265,0.714,2.247-0.435,1.085-0.775,1.653-1.023,1.705-0.227,0.207-0.728,0.207-1.503,0-0.28,0-0.543,0.103-0.791,0.31-0.972,0.268-2.325,0.402-4.061,0.402-2.025-0.309-4.123-0.935-6.292-1.874m-0.931-27.961-1.379,0.17c-1.013,0.404-1.643,0.713-1.89,0.93-0.289,0.207-0.383,0.388-0.279,0.543l0.728,0.077c1.487-0.568,3.172-1.085,5.052-1.55l0.062-0.17-0.433-0.139c-1.003,0.092-1.53,0.092-1.582,0l-0.279,0.139z" fill="url(#linearGradient3829)"/></g></g></g></g></g><g id="g3837"><g id="g3839" clip-path="url(#clipPath3841)"><g id="g3845"><g id="g3847"><g id="g3849" clip-path="url(#clipPath3851)"><path id="path3861" d="m70.631,464.99c0.145-0.527,0.17-0.884,0.077-1.069l0.063-0.387-0.279-3.705-0.14-0.403c-0.052-1.86-0.171-2.925-0.356-3.193,0-1.23-0.093-2.377-0.279-3.441l-0.837-8.152-0.202-0.868-0.139-1.659-0.713-3.982-1.132-3.627-0.062-1.008c0.32-0.226,0.956-0.114,1.907,0.341,0.134,0.083,0.227,0.497,0.279,1.24l0.48,0.93c0.744,3.41,1.772,6.193,3.085,8.354,1.312,1.683,2.247,3.016,2.805,3.998l2.262,2.651c0.135,0.134,0.362,0.176,0.683,0.125l0.496-0.466,0.356-0.604c-0.238-1.716-0.264-3.948-0.077-6.696l-0.063-0.046,0.14-0.403-0.077-0.264c0-1.86,0.284-3.524,0.852-4.991,0.703-1.9,1.664-3.089,2.883-3.565l1.534-0.077,1.41,0.403,0.558,0.449c0.476,0.982,0.667,1.85,0.574,2.604l0.14,0.388-0.078,0.124,0.155,1.472-0.574,0.93c-0.092-1.333-0.443-2.836-1.054-4.51l-0.712-0.868-0.496-0.062-0.62,0.465-0.419,1.193-0.558,0.466c-0.145,0.051-0.196,0.469-0.155,1.254l-0.341,0.341-0.356,1.256c0.092,0.093,0.092,0.356,0,0.791l-0.217,0.464c-0.187,0.796-0.253,1.572-0.202,2.326l-0.077,2.325-0.264,0.449,0.341,2.076-0.155,0.202,0.217,1.705,0.279,0.604,1.07,4.108-0.574,0.325c-0.703,0.052-1.399,0.009-2.091-0.124l-0.358-0.929-5.331-5.891-2.604-3.517-0.558-0.605c-0.093-0.134-0.258-0.181-0.496-0.139v0.604c0.475,0.351,0.734,0.899,0.775,1.643l0.217,0.403c0.041,0.227-0.005,0.428-0.14,0.604l0.202,1.845-0.062,0.279,0.279,1.596,0.124,0.201-0.124,1.442c0.134,0.713,0.46,1.508,0.976,2.387,0.042,0.713-0.005,1.137-0.139,1.271l0.062,1.782,0.496,1.008v0.464l0.573,2.388-0.573,0.402-0.356,0.667-0.063,1.24c0.279,0.671,0.372,1.162,0.279,1.472,0.093,0.093-0.072,0.326-0.496,0.697l-0.697,0.078c-0.558-0.083-1.003-0.61-1.333-1.581" fill="url(#linearGradient3855)"/></g></g></g></g></g><g id="g3863"><g id="g3865" clip-path="url(#clipPath3867)"><g id="g3871"><g id="g3873"><g id="g3875" clip-path="url(#clipPath3877)"><path id="path3887" d="m92.857,458.47-0.822-0.852-1.348-2.279-0.76-1.751-0.232-0.915-0.512-0.929-0.092-0.558-0.838-2.108c-0.619-2.573-0.986-4.386-1.1-5.441l-0.062-2.572c-0.165-0.548,0.078-1.932,0.728-4.154,0.579-1.22,1.478-2.072,2.697-2.557,0.496-0.187,1.111-0.249,1.845-0.187,0.888-0.258,1.865,0.321,2.929,1.737l1.426,2.511,0.418,0.991,1.427,4.697c0,0.185,0.304,0.346,0.913,0.48l0.59,3.022,0.341,0.822c0.227,1.043,0.31,1.937,0.247,2.681l0.358,1.844-0.264,1.55-0.264,0.652-0.929,0.728-0.233,0.558-1.008,0.821-2.603,0.28-0.822,0.557-0.946,0.372h-1.084zm-0.915-23.481c-0.785,0.372-1.534,1.571-2.247,3.596l-0.264,2.48v1.379c0.331,2.16,1.199,5.14,2.604,8.943l1.163,1.922,1.007,0.743,0.418,0.729c0.445,0.311,0.863,0.248,1.256-0.186l1.084-0.186,0.42,0.372c0.95-1.044,1.235-3.007,0.852-5.89l0.077-0.185c-0.175-1.23-0.428-2.46-0.759-3.689,0-0.424,0.113-0.703,0.341-0.837v-0.449l-1.178-3.318c-0.558-1.332-1.344-2.655-2.355-3.968l-1.504-1.177c-0.356-0.199-0.622-0.298-0.8-0.298-0.044,0-0.081,0.007-0.115,0.019" fill="url(#linearGradient3881)"/></g></g></g></g></g><g id="g3889"><g id="g3891" clip-path="url(#clipPath3893)"><g id="g3897"><g id="g3899"><g id="g3901" clip-path="url(#clipPath3903)"><path id="path3913" d="m112.18,461.06-0.791-2.031-2.433-2.929-0.45-0.264c-0.289,0.351-0.258,0.646,0.094,0.884v0.526c-0.403,0.187-0.78,0.605-1.131,1.256l-1.845,0.171-0.527-0.358c0.061-0.939,0.005-1.528-0.171-1.765l-0.527-4.868-1.736-10.895-0.79-3.364-0.512-3.363c0.29-0.537,0.956-0.505,2,0.093l1.131,7.161c0.755,3.719,1.277,5.905,1.565,6.555,0.941,2.718,2.196,5.286,3.767,7.704,0.465,0.651,0.816,0.914,1.054,0.79l0.326-0.433,0.79-0.543v-1.148l0.186-0.262,0.775-0.187,1.225,0.357,0.356,2.309,0.263,0.62c0,0.651,0.114,1.271,0.341,1.86v1.411c0,0.588-0.49,0.945-1.472,1.069-0.879,0-1.374-0.119-1.488-0.356" fill="url(#linearGradient3907)"/></g></g></g></g></g><g id="g3915"><g id="g3917" clip-path="url(#clipPath3919)"><g id="g3923"><g id="g3925"><g id="g3927" clip-path="url(#clipPath3929)"><path id="path3939" d="m129.84,458.27-1.086-3.177-2.511-5.814-0.263-1.471-1.611-3.348-2.14-2.822-2.697-4.199c-0.651-0.899-1.065-1.318-1.239-1.255,0.062,0.361,0,0.635-0.187,0.821,0.124,0.599,0.124,1.079,0,1.441l0.357,2.992,0.263,1.022v0.62l0.543,1.907,0.093,1.1,0.356,1.086v0.821l0.807,3.363,1.162,3.828,0.186,0.171,0.093,0.651c-0.186,0.288-0.879,0.434-2.077,0.434l-0.434-0.264-1.969-0.356c-0.361-0.186-0.604-0.491-0.729-0.915l0.466-0.093,2.046,0.28,0.093-0.559-1.876-7.997-1.425-7.997c-0.124-0.487-0.124-0.822,0-1.008l-0.093-2.898c0.175-0.796,0.563-1.101,1.162-0.915l0.356-0.279c1.075,0,1.819,0.248,2.232,0.744l0.279,1.085,1.504,3.364,3.146,5.269c0.714,0.609,1.189,0.827,1.426,0.651l0.093-0.093-0.093-4.727c0-0.672,0.212-1.581,0.636-2.728,0.537-1.219,1.193-2.16,1.968-2.821l1.069-0.558,2.604-0.093c0.29-0.062,0.946,0.124,1.968,0.558l1.334,1.271c1.725,2.304,2.474,3.637,2.246,3.999l-0.278,0.279-0.263-0.108-1.799-2.62-1.425-1.286c-1.375-0.724-2.625-0.962-3.751-0.713-0.249-0.062-0.817,0.935-1.705,2.991-0.424,2.118-0.579,3.755-0.464,4.913l0.541,3.813,0.636,1.999,0.186,1.271,0.341,0.821,0.465,2.17c0.95,2.738,1.544,4.226,1.782,4.464v0.465c-0.508,0.427-1.011,0.641-1.511,0.641-0.272,0-0.544-0.064-0.813-0.191" fill="url(#linearGradient3933)"/></g></g></g></g></g><g id="g3941"><g id="g3943" clip-path="url(#clipPath3945)"><g id="g3949"><g id="g3951"><g id="g3953" clip-path="url(#clipPath3955)"><path id="path3965" d="m145.03,456.78-0.542-0.713-0.976-0.806-0.264-0.713c-0.186-0.062-0.573-0.599-1.163-1.612-0.237-1.064-0.325-1.746-0.263-2.046l-0.186-0.527c0-0.775,0.088-1.224,0.264-1.348l0.185-1.241,1.07-2.138-1.612-1.612-0.263-0.093-2.31-2.403-1.612-2.045c-0.475-0.662-0.831-1.674-1.069-3.039-0.114-0.65,0.449-1.42,1.69-2.308h0.635l1.07-0.357,2.929-0.186c1.725,0.177,2.944,0.594,3.657,1.256l0.992,0.263,1.148,1.24,0.542,1.162,0.263,1.69-0.356,2.061-0.264,0.356-0.619,2.047-1.427,2.588v0.619l0.528,0.807,2.138,1.519,1.069,0.449c0.414,0.589,0.92,1.064,1.519,1.426l1.07,0.171,1.255-0.45,0.559,3.627-2.79-1.844-1.968-1.69-0.977-1.163c-1.84-1.187-2.971-1.664-3.395-1.425-0.888,1.311-1.033,2.712-0.433,4.2l1.069,1.503,0.17,0.636,1.613,1.953c0.112-0.062,0.588,0.237,1.425,0.899l1.24,1.069v0.62l-0.171,0.186-1.782,0.357c-0.299-0.062-1.519-1.044-3.658-2.945m-6.152-21.761-0.713,0.543c-0.301,0.237-0.45,0.95-0.45,2.139l1.255,2.495,1.782,2.139c0.352,0.299,0.709,0.713,1.07,1.239l1.333,1.163,0.449,0.093,0.713-1.162,0.45-0.357,0.527-1.07,0.542-0.449c0.114,0,0.321-0.595,0.62-1.783v-2.138c-0.413-1.064-0.919-2.015-1.518-2.852l-0.806-0.264c-0.528-0.237-1.178-0.355-1.953-0.355l-1.612-0.094c-0.114,0.176-0.677,0.413-1.689,0.713" fill="url(#linearGradient3959)"/></g></g></g></g></g></g></svg>
